<?xml version="1.0" standalone="no"?>
<!DOCTYPE svg PUBLIC "-//W3C//DTD SVG 1.1//EN" "http://www.w3.org/Graphics/SVG/1.1/DTD/svg11.dtd">
<svg xmlns="http://www.w3.org/2000/svg">
<metadata>Copyright (C) 2016 by original authors @ fontello.com</metadata>
<defs>
<font id="icons" horiz-adv-x="1000" >
<font-face font-family="icons" font-weight="400" font-stretch="normal" units-per-em="1000" ascent="850" descent="-150" />
<missing-glyph horiz-adv-x="1000" />
<glyph glyph-name="speech-bubble" unicode="&#xe800;" d="M413 807c-131 0-246-51-325-144-70-83-100-187-83-287 8-46 22-115 59-173 11-17 18-38 18-59l6-193c1-21 13-40 31-50 9-6 19-8 30-8 10 0 20 2 29 8l167 93c22 13 47 18 73 15 28-4 56-6 84-6 275 0 498 170 498 379 0 205-184 425-587 425z m93-738c-65 3-193 13-241 58-18 18-38-4-26-19 14-19 62-47 81-53-20-10 40 23-167-94l-6 185c-3 95-50 76-78 241-14 79 12 167 69 234 66 78 164 121 275 121 358 0 522-187 522-360 0-172-192-312-429-313z m-173 630c-89-40-170-106-191-217-8-41-6-40-5-83 0-32 52-34 49 5 0 0-2 24-2 31-4 86 48 160 119 212 41 30 59 29 52 46-3 8-10 11-22 6z m-135-365c-8 36-86 28-27-63 18-27 60 0 42 28-12 17-15 35-15 35z" horiz-adv-x="1000" />

<glyph glyph-name="calendar-(2)" unicode="&#xe803;" d="M690 744v59h-70v-59h-240v59h-70v-59h-310v-847h1000v847h-310z m-380-70v-59h70v59h240v-47h70v47h239v-118h-858v118h239z m-239-706v517h858v-517h-858z" horiz-adv-x="1000" />

<glyph glyph-name="down-chevron" unicode="&#xe804;" d="M500 71c-15 0-30 6-41 17l-442 442c-23 23-23 59 0 82 23 23 59 23 82 0l401-401 401 401c23 23 59 23 82 0 23-23 23-59 0-82l-442-442c-11-11-26-17-41-17z" horiz-adv-x="1000" />

<glyph glyph-name="heart-outline" unicode="&#xe805;" d="M919 706c-53 53-122 82-197 82-74 0-144-29-196-82l-26-26-26 26c-52 53-122 82-196 82-74 0-144-29-197-82-108-108-108-284 0-393l388-388c7-6 15-10 23-12 3 0 6-1 8-1 11 0 22 5 31 13l388 388c108 109 108 285 0 393z m-61-332l-358-358-358 358c-75 75-75 197 0 272 36 36 84 56 136 56 51 0 99-20 135-56l57-57c16-16 44-16 60 0l57 57c36 36 84 56 135 56 52 0 100-20 136-56 75-75 75-197 0-272z" horiz-adv-x="1000" />

<glyph glyph-name="left-direction-arrow" unicode="&#xe806;" d="M721-150c-15 0-30 6-41 17l-442 442c-23 23-23 59 0 82l442 442c23 23 59 23 82 0s23-59 0-82l-401-401 401-401c23-23 23-59 0-82-11-11-26-17-41-17z" horiz-adv-x="1000" />

<glyph glyph-name="magnifying-glass" unicode="&#xe807;" d="M967-61l-230 231c57 69 91 158 91 255 0 223-180 404-403 404-223 0-403-181-403-404s180-403 403-403c97 0 186 34 255 91l230-230c16-15 41-15 57 0 15 16 15 41 0 56z m-542 163c-178 0-323 145-323 323s145 323 323 323c178 0 323-145 323-323s-145-323-323-323z" horiz-adv-x="1000" />

<glyph glyph-name="quotations-button" unicode="&#xe808;" d="M500 850c-276 0-500-224-500-500s224-500 500-500 500 224 500 500-224 500-500 500z m-52-491c-4-64-33-160-149-253-5-5-12-7-18-7-9 0-18 4-24 12-11 14-8 34 5 44 94 76 120 151 125 202-14-8-29-13-45-13-51 0-92 43-92 96s41 96 92 96c12 0 22-3 32-7l0 0 10-5 1 0 1 0 14-11 7-6c23-23 47-66 41-148z m303 0c-4-64-33-160-149-253-5-5-12-7-18-7-9 0-18 4-24 12-11 14-8 34 5 44 94 76 120 151 125 202-14-8-29-13-45-13-51 0-92 43-92 96s41 96 92 96c12 0 22-3 32-7l0 0 10-5 1 0 1 0 14-11 7-6c23-23 47-66 41-148z" horiz-adv-x="1000" />

<glyph glyph-name="reply-back" unicode="&#xe809;" d="M848 372c-100 100-242 157-418 164v154c0 37-47 61-76 32l-340-340c-20-20-17-49 0-64l340-340c29-29 76-5 76 32v157h39c130 0 360-23 448-179 7-15 24-22 39-22 27 0 44 22 44 44 0 7 0 210-152 362z m-379-115c-54 0-86-5-88-5-22-2-42-22-42-44v-90l-230 232 230 233v-91c0-24 22-44 47-44 328 0 450-169 497-296-128 88-304 105-414 105z" horiz-adv-x="1000" />

<glyph glyph-name="right-thin-chevron" unicode="&#xe80a;" d="M279-150c-15 0-30 6-41 17-23 23-23 59 0 82l401 401-401 401c-23 23-23 59 0 82 23 23 59 23 82 0l442-442c23-23 23-59 0-82l-442-442c-11-11-26-17-41-17z" horiz-adv-x="1000" />

<glyph glyph-name="3x3-grid" unicode="&#xe80b;" d="M214 850h-143c-39 0-71-32-71-71v-143c0-40 32-72 71-72h143c40 0 72 32 72 72v143c0 39-32 71-72 71z m357 0h-142c-40 0-72-32-72-71v-143c0-40 32-72 72-72h142c40 0 72 32 72 72v143c0 39-32 71-72 71z m358 0h-143c-40 0-72-32-72-71v-143c0-40 32-72 72-72h143c39 0 71 32 71 72v143c0 39-32 71-71 71z m-715-357h-143c-39 0-71-32-71-72v-142c0-40 32-72 71-72h143c40 0 72 32 72 72v142c0 40-32 72-72 72z m357 0h-142c-40 0-72-32-72-72v-142c0-40 32-72 72-72h142c40 0 72 32 72 72v142c0 40-32 72-72 72z m358 0h-143c-40 0-72-32-72-72v-142c0-40 32-72 72-72h143c39 0 71 32 71 72v142c0 40-32 72-71 72z m-715-357h-143c-39 0-71-32-71-72v-143c0-39 32-71 71-71h143c40 0 72 32 72 71v143c0 40-32 72-72 72z m357 0h-142c-40 0-72-32-72-72v-143c0-39 32-71 72-71h142c40 0 72 32 72 71v143c0 40-32 72-72 72z m358 0h-143c-40 0-72-32-72-72v-143c0-39 32-71 72-71h143c39 0 71 32 71 71v143c0 40-32 72-71 72z" horiz-adv-x="1000" />

<glyph glyph-name="access-denied" unicode="&#xe80c;" d="M598 350l382 382c27 27 27 71 0 98-27 27-71 27-98 0l-382-382-382 382c-27 27-71 27-98 0s-27-71 0-98l382-382-382-382c-27-27-27-71 0-98 27-27 71-27 98 0l382 382 382-382c27-27 71-27 98 0 27 27 27 71 0 98l-382 382z" horiz-adv-x="1000" />

<glyph glyph-name="add-circular-mini-button" unicode="&#xe80d;" d="M500 850c-276 0-500-224-500-500 0-276 224-500 500-500 276 0 500 224 500 500 0 276-224 500-500 500z m267-533h-234v-234c0-18-15-33-33-33-18 0-33 15-33 33v234h-234c-18 0-33 15-33 33 0 18 15 33 33 33h234v234c0 18 15 33 33 33 18 0 33-15 33-33v-234h234c18 0 33-15 33-33 0-18-15-33-33-33z" horiz-adv-x="1000" />

<glyph glyph-name="add-folder-silhouette" unicode="&#xe80e;" d="M933 783h-266c-37 0-67-29-67-66 0 0-9-61-67-67h-466c-37 0-67-30-67-67v-600c0-37 30-66 67-66h866c37 0 67 29 67 66v734c0 37-30 66-67 66z m-233-533h-167v-167c0-18-15-33-33-33-18 0-33 15-33 33v167h-167c-18 0-33 15-33 33s15 34 33 34h167v166c0 19 15 34 33 34 18 0 33-15 33-34v-166h167c18 0 33-15 33-34s-15-33-33-33z" horiz-adv-x="1000" />

<glyph glyph-name="archive-box" unicode="&#xe80f;" d="M938 788h-875c-35 0-63-28-63-63v-125h1000v125c0 35-28 63-62 63z m-875-813c0-35 28-63 62-63h750c35 0 63 28 63 63v563h-875v-563z m312 438h250c35 0 63-28 63-63s-28-62-63-62h-250c-34 0-62 28-62 62s28 63 62 63z" horiz-adv-x="1000" />

<glyph glyph-name="arrow-left-and-right" unicode="&#xe810;" d="M656 288h-549l71 72c12 12 12 32 0 44-12 12-32 12-44 0l-125-125c-6-6-9-14-9-22 0-8 3-16 9-23l121-120c12-12 32-12 44 0 12 12 12 32 0 44l-67 67h549c17 0 32 14 32 32s-15 31-32 31z m335 178l-120 120c-13 12-32 12-45 0s-12-32 0-44l67-67h-549c-17 0-31-14-31-32 0-17 14-31 31-31h549l-71-71c-12-13-12-32 0-45 12-12 32-12 44 0l125 125c6 6 9 14 9 22 0 9-3 17-9 23z" horiz-adv-x="1000" />

<glyph glyph-name="arrow-pointing-to-up" unicode="&#xe811;" d="M111 345l389 343 389-343c25-26 66-26 92 0 25 25 25 66 0 92l-434 384c-13 13-30 19-47 19-17 0-34-6-47-19l-434-384c-25-26-25-67 0-92s67-26 92 0z m436 11c-13 13-30 19-47 18-17 1-34-5-47-18l-434-384c-25-26-25-67 0-92 26-26 67-26 92 0l389 343 389-343c25-26 66-26 92 0 25 25 25 66 0 92l-434 384z" horiz-adv-x="1000" />

<glyph glyph-name="arrow-right-circle" unicode="&#xe812;" d="M500 850c-276 0-500-224-500-500 0-276 224-500 500-500 276 0 500 224 500 500 0 276-224 500-500 500z m157-524l-216-216c-13-13-35-13-48 0-13 13-13 34 0 47l193 193-193 193c-13 13-13 34 0 47s35 13 48 0l216-216c6-7 10-15 9-24 0-9-3-17-9-24z" horiz-adv-x="1000" />

<glyph glyph-name="arrow-right-down" unicode="&#xe813;" d="M854 704c-196 195-512 195-707 0s-196-512 0-708c195-195 511-195 707 0 195 196 195 512 0 708z m-121-554v0l-2-13c-3-8-10-14-18-18l-13-2h-283c-18 0-33 15-33 33 0 18 15 33 33 33h203l-368 368c-13 13-13 34 0 47 13 13 34 13 47 0l368-367v202c0 18 15 33 33 33 18 0 33-15 33-33 0 0 0-283 0-283z" horiz-adv-x="1000" />

<glyph glyph-name="arrow-up-1" unicode="&#xe814;" d="M500 850c-276 0-500-224-500-500 0-276 224-500 500-500 276 0 500 224 500 500 0 276-224 500-500 500z m240-607c-13-13-34-13-47 0l-193 193-193-193c-13-13-34-13-47 0-13 13-13 35 0 48l216 216c7 6 15 9 24 9s17-3 24-9l216-216c13-13 13-35 0-48z" horiz-adv-x="1000" />

<glyph glyph-name="arrow-up" unicode="&#xe815;" d="M500 850c-276 0-500-224-500-500 0-276 224-500 500-500 276 0 500 224 500 500 0 276-224 500-500 500z m0-933c-239 0-433 194-433 433s194 433 433 433 433-194 433-433-194-433-433-433z m20 589c-11 14-30 14-41 0l-1-1-203-258c-12-14-12-38 0-52l0 0c5-7 13-12 21-12h407c8 0 16 5 21 12l0 0c12 14 12 38 0 52l-204 259z" horiz-adv-x="1000" />

<glyph glyph-name="arrows-inside-a-circle-pointing-up" unicode="&#xe816;" d="M500 850c-276 0-500-224-500-500 0-276 224-500 500-500 276 0 500 224 500 500 0 276-224 500-500 500z m249-727c-14-13-35-13-48 0l-200 177-199-177c-13-13-35-13-48 0-13 13-13 35 0 48l223 197c7 6 16 10 24 10 9 0 18-3 24-10l224-197c13-14 13-35 0-48z m0 239c-14-13-35-13-48 0l-200 177-199-177c-14-13-35-13-48 0s-13 35 0 48l223 197c7 7 16 10 24 10 9 0 18-3 24-10l224-197c13-13 13-35 0-48z" horiz-adv-x="1000" />

<glyph glyph-name="arrows-pointing-down" unicode="&#xe817;" d="M500 850c-276 0-500-224-500-500s224-500 500-500 500 224 500 500-224 500-500 500z m0-933c-239 0-433 194-433 433s194 433 433 433 433-194 433-433-194-433-433-433z m197 423l-201-177-200 177c-13 13-35 13-48 0s-13-34 0-47l224-199c7-6 16-9 24-9 9 0 18 3 25 9l224 199c13 13 13 34 0 47-13 13-35 13-48 0z m-225-5c7-7 16-10 24-10 9 0 18 3 25 10l224 198c13 13 13 34 0 47-13 14-35 14-48 0l-201-177-200 177c-13 14-35 14-48 0-13-13-13-34 0-47l224-198z" horiz-adv-x="1000" />

<glyph glyph-name="atomic-symbol-outline" unicode="&#xe818;" d="M808 353c17 17 33 33 47 49 79 90 101 163 66 219-15 23-47 51-112 51-41 0-93-12-151-33-26 111-72 211-158 211-87 0-134-104-159-217-58 20-111 31-152 31-69 0-101-29-116-54-48-79 27-180 119-263-17-17-33-33-47-49-79-90-101-163-65-218 15-24 46-51 111-51 41 0 93 11 151 32 26-111 72-211 158-211 88 0 134 104 159 217 58-20 111-31 152-31 69 0 101 29 116 54 48 79-27 180-119 263z m-681 225c9 16 31 24 62 24 36 0 85-11 140-31-6-43-10-84-13-120-28-21-54-42-78-63-88 80-134 153-111 190z m186-251l-27 20 27 22-1-19 1-23z m-122-236c-29 0-49 7-59 22-23 37 21 111 107 193 27-22 54-42 77-59 3-37 7-80 14-124-55-20-104-32-139-32z m427 407l-20 12-35 20c17 8 32 16 48 23 2-18 5-36 7-55z m-118 290c40 0 76-68 99-172-33-15-67-31-101-50-34 17-67 32-98 45 23 107 59 177 100 177z m-111-240l43-20-33-20-17-11c2 17 4 35 7 51z m-7-346l20-12 35-20c-17-8-32-16-48-22-2 17-5 35-7 54z m118-290c-40 0-76 68-99 172 33 15 67 31 102 50 33-17 65-32 97-45-23-107-59-177-100-177z m111 240c-14 6-28 13-43 20l34 20 16 11c-2-17-4-35-7-51z m12 131c-18-13-36-26-55-38-23-14-44-27-66-40-22 12-45 25-67 38-20 13-40 25-58 38-1 22-2 45-2 69 0 23 1 45 2 67 18 13 36 26 55 38 23 14 44 28 66 40 22-12 45-25 67-38 20-13 40-25 58-38 1-22 2-45 2-69 0-23-1-45-2-67z m186 326c29 0 49-7 59-22 23-37-21-111-107-193-27 22-54 42-78 59-2 37-6 80-13 124 55 20 104 32 139 32z m-122-235l27-21-27-22 0 19 0 24z m186-252c-9-16-31-24-62-24-36 0-85 11-140 31 6 43 10 85 13 120 28 21 53 42 78 63 88-80 134-153 111-190z" horiz-adv-x="1000" />

<glyph glyph-name="attention-sign-outline" unicode="&#xe819;" d="M500 850c-276 0-500-224-500-500s224-500 500-500 500 224 500 500-224 500-500 500z m0-938c-241 0-437 197-437 438 0 241 196 438 437 438 241 0 438-197 438-438 0-241-197-438-438-438z m0 751c-34 0-62-28-62-63v-312c0-35 28-63 62-63s63 28 63 63v312c0 35-28 63-63 63z" horiz-adv-x="1000" />

<glyph glyph-name="back-arrow-button" unicode="&#xe81a;" d="M500 850c-276 0-500-224-500-500 0-276 224-500 500-500 276 0 500 224 500 500 0 276-224 500-500 500z m0-933c-239 0-433 194-433 433s194 433 433 433 433-194 433-433-194-433-433-433z m107 673c-13 13-34 13-47 0l-217-216c-6-7-9-15-9-24s3-17 9-24l217-216c13-13 34-13 47 0 13 13 13 34 0 47l-193 193 193 193c13 13 13 34 0 47z" horiz-adv-x="1000" />

<glyph glyph-name="backward-arrow-1" unicode="&#xe81b;" d="M500 850c-276 0-500-224-500-500 0-276 224-500 500-500 276 0 500 224 500 500 0 276-224 500-500 500z m-15-745c-13-13-34-13-47 0l-198 224c-7 7-10 16-10 25 0 8 3 17 10 24l198 224c13 13 34 13 47 0 14-13 14-34 0-48l-177-200 177-201c14-13 14-35 0-48z m241 0c-13-13-35-13-48 0l-198 224c-7 7-10 16-10 25 0 8 3 17 10 24l198 224c13 13 34 13 48 0 13-13 13-34 0-48l-178-200 178-201c13-13 13-35 0-48z" horiz-adv-x="1000" />

<glyph glyph-name="black-gallon" unicode="&#xe81c;" d="M125-88c0-25 15-48 39-57 7-3 15-5 24-5 16 0 32 6 44 18l268 269 268-269c12-12 28-18 45-18 8 0 16 2 23 5 24 9 39 32 39 57v751h-750v-751z m688 938h-625c-35 0-63-28-63-62v-63h750v63c0 34-28 62-62 62z" horiz-adv-x="1000" />

<glyph glyph-name="bolt-silhouette" unicode="&#xe81d;" d="M579 310l108-7c7 12 13 24 19 37 5 13 10 26 14 39l-80 74c3 21 4 42 2 63l81 72c-7 26-17 52-30 77l-109-4c-13 16-28 31-44 45l7 108c-12 7-24 13-37 19-13 5-26 10-39 14l-74-80c-21 3-42 3-63 1l-72 82c-26-7-52-18-77-31l4-108c-16-13-31-28-45-44l-108 7c-7-12-13-24-19-37-5-13-10-26-14-39l80-74c-3-21-3-42-1-63l-82-72c7-26 18-52 31-76l108 4c13-17 28-32 44-46l-7-108c12-7 24-13 37-19 13-5 26-10 39-14l74 80c21-3 42-3 63-1l72-82c26 7 52 17 76 30l-3 109c16 13 31 28 45 44z m-292 6c-95 41-139 152-98 247 41 95 152 139 247 98 95-41 139-152 98-247-41-95-152-139-247-98z m712-271l1 24-1 24-60 21-26 9 12 25 27 57c-10 13-22 24-34 35l-57-28-25-12-9 26-21 60-25 2-24-2-21-60-9-25-25 11-57 27c-13-10-24-21-34-34l27-57 12-25-26-9-60-21-1-24 1-24 60-22 26-9-12-25-27-57c10-12 21-24 34-34l57 27 25 12 9-26 21-60 24-1 24 1 22 60 9 26 25-12 57-27c12 10 24 22 34 34l-27 57-12 25 26 9 60 22z m-218-23c-26 0-47 21-47 47s21 47 47 47 47-21 47-47-21-47-47-47z" horiz-adv-x="1000" />

<glyph glyph-name="book-information" unicode="&#xe81e;" d="M908 850h-688c-86 0-156-69-157-155l0 0v-687c0-87 70-158 157-158h531c35 0 62 28 62 62v657c0 17-13 31-30 31h-563c-52 0-95 40-95 92 0 53 43 96 95 96h655v-719c0-17 15-31 33-31s30 14 30 31v750c0 17-13 31-30 31z m-688-312h530l1-626h-531c-52 0-95 43-95 96v560c26-19 59-30 95-30z" horiz-adv-x="1000" />

<glyph glyph-name="box-outline" unicode="&#xe81f;" d="M938 788h-875c-35 0-63-28-63-63v-125h1000v125c0 35-28 63-62 63z m0-125h-875v62h875v-62z m-875-688c0-35 28-63 62-63h750c35 0 63 28 63 63v563h-875v-563z m62 500h750v-500h-750v500z m531-62h-312c-17 0-31-14-31-32 0-17 14-31 31-31h312c17 0 32 14 32 31 0 18-15 32-32 32z" horiz-adv-x="1000" />

<glyph glyph-name="calendar" unicode="&#xe820;" d="M996 674c-8 26-30 45-58 45h-63v-97c0-52-42-94-94-94s-93 42-93 94v97h-376v-97c0-52-42-94-94-94s-93 42-93 94v97h-62c-29 0-51-19-59-45h-4v-762c0-34 28-62 63-62h875c34 0 62 28 62 62v762h-4z m-58-762h-875v501h875v-501z m-720 678c18 0 32 14 32 32v197c0 17-14 31-32 31s-31-14-31-31v-197c0-18 14-32 31-32z m563 0c17 0 32 14 32 32v197c0 17-15 31-32 31s-31-14-31-31v-197c0-18 14-32 31-32z" horiz-adv-x="1000" />

<glyph glyph-name="caution-sign" unicode="&#xe821;" d="M982 575l-257 257c-11 11-27 18-44 18h-362c-17 0-33-7-44-18l-257-257c-11-11-18-27-18-44v-362c0-17 7-33 18-44l257-257c11-11 27-18 44-18h362c17 0 33 7 44 18l257 257c11 11 18 27 18 44v362c0 17-7 33-18 44z m-44-406l-257-257h-362l-256 257v362l256 257h362l257-257v-362l0 0z m-438 494c-34 0-62-28-62-63v-312c0-35 28-63 62-63s63 28 63 63v312c0 35-28 63-63 63z" horiz-adv-x="1000" />

<glyph glyph-name="chat-conversation" unicode="&#xe822;" d="M1000 263c0 89-50 168-128 222 6-25 9-50 9-77 0-201-171-369-397-406 48-19 101-30 158-30 54 0 105 10 150 27 58-20 121-25 174-25-28 33-46 65-60 93 58 52 94 120 94 196z m-213 145c0 177-176 320-393 320-218 0-394-143-394-320 0-92 48-174 125-233-14-37-39-86-80-135 78 0 180 10 257 58 30-6 60-9 92-9 217 0 393 143 393 319z" horiz-adv-x="1000" />

<glyph glyph-name="check-button" unicode="&#xe823;" d="M500 850c-276 0-500-224-500-500s224-500 500-500 500 224 500 500-224 500-500 500z m0-938c-241 0-437 197-437 438 0 241 196 438 437 438 241 0 438-197 438-438 0-241-197-438-438-438z m219 637c-20 13-47 7-61-13l-211-322-100 93c-18 17-46 15-62-2s-16-46 2-62l140-129 1-1 4-3 6-3 7-3 7-1 11 0 4 1 12 5 2 2 7 5 4 6 0 0 240 366c13 21 7 48-13 61z" horiz-adv-x="1000" />

<glyph glyph-name="check-sign-1" unicode="&#xe824;" d="M971 837c-29 19-69 11-88-19l-500-801-276 269c-26 24-66 22-90-4-24-25-22-66 3-89l333-324 2-2 5-5 9-3 10-4 11-2 15 0 7 2 17 7 3 2 11 8 5 8 0 1 542 867c19 30 11 69-19 89z" horiz-adv-x="1000" />

<glyph glyph-name="check-sign" unicode="&#xe825;" d="M500 850c-276 0-500-224-500-500s224-500 500-500 500 224 500 500-224 500-500 500z m232-362l-240-366 0 0-4-6-7-5-2-1-12-6-4-1-11 0-7 1-7 3-6 3-4 3-1 1-140 129c-18 16-19 44-2 62 16 17 44 19 62 2l100-93 211 322c14 20 41 26 61 13 20-13 26-40 13-61z" horiz-adv-x="1000" />

<glyph glyph-name="checked-box" unicode="&#xe826;" d="M846-73h-769v769h567l48 77h-615c-42 0-77-34-77-77v-769c0-43 35-77 77-77h769c43 0 77 34 77 77v508l-77-123v-385z m130 914c-9 6-20 9-30 9-17 0-34-9-45-24l-418-604-162 185c-22 20-56 19-76-3-20-22-19-56 3-76l195-222 4-5 5-6 2-1 4-4 11-5 2-1 17-3 0 0c15 0 30 5 40 17l5 7 0 0 458 662c17 25 10 58-15 74z" horiz-adv-x="1000" />

<glyph glyph-name="circle" unicode="&#xe827;" d="M500 850c-276 0-500-224-500-500s224-500 500-500 500 224 500 500-224 500-500 500z m0-917c-230 0-417 187-417 417s187 417 417 417 417-187 417-417-187-417-417-417z" horiz-adv-x="1000" />

<glyph glyph-name="circular-clock" unicode="&#xe828;" d="M854 704c-98 97-226 146-354 146s-256-49-354-146c-195-196-195-512 0-708 98-97 226-146 354-146s256 49 354 146c195 196 195 512 0 708z m-48-660c-82-82-190-127-306-127-116 0-224 45-306 127-82 82-127 190-127 306 0 116 45 225 127 306 82 82 190 127 306 127s224-45 306-127 127-190 127-306-45-224-127-306z m-107 342h-168v235c0 18-15 33-33 33-19 0-34-15-34-33v-269c0-18 15-33 34-33h201c18 0 33 15 33 33 0 19-15 34-33 34z" horiz-adv-x="1000" />

<glyph glyph-name="circular-light-bulb" unicode="&#xe829;" d="M500 850c-206 0-374-168-374-374 0-121 58-235 157-305l4-3c23-13 25-57 25-65l0-3v-123c0-24 13-45 34-56l126-64c9-5 18-7 28-7 10 0 19 2 28 7l128 64c21 11 34 32 34 56v122c0 61 37 82 38 82l14 9c84 71 132 175 132 286 0 206-168 374-374 374z m0-938l-126 65h253l-127-65z m127 187v-60h-253v61l0 1h254l-1-2z m74 138c0 0-41-19-62-73h-275c-8 21-21 44-45 58-79 56-131 149-131 254 0 172 140 312 312 312 172 0 312-140 312-312 0-96-43-181-111-239z m-170 488c-17 0-31-14-31-31s14-31 31-31c70 0 156-64 156-159 0-17 14-31 31-31 18 0 32 14 32 31 0 142-112 221-219 221z" horiz-adv-x="1000" />

<glyph glyph-name="circular-menu-button" unicode="&#xe82a;" d="M500 850c-276 0-500-224-500-500 0-276 224-500 500-500 276 0 500 224 500 500 0 276-224 500-500 500z m267-733h-534c-18 0-33 15-33 33 0 18 15 33 33 33h534c18 0 33-15 33-33 0-18-15-33-33-33z m0 200h-534c-18 0-33 15-33 33 0 18 15 33 33 33h534c18 0 33-15 33-33 0-18-15-33-33-33z m0 200h-534c-18 0-33 15-33 33 0 18 15 33 33 33h534c18 0 33-15 33-33 0-18-15-33-33-33z" horiz-adv-x="1000" />

<glyph glyph-name="circular-pie-chart" unicode="&#xe82b;" d="M500 850c-276 0-500-224-500-500s224-500 500-500c161 0 304 77 396 195l-396 305v500z m86-8v-448l357-275c36 69 57 148 57 231 0 247-179 451-414 492z" horiz-adv-x="1000" />

<glyph glyph-name="close-button-1" unicode="&#xe82c;" d="M500 850c-276 0-500-224-500-500 0-276 224-500 500-500 276 0 500 224 500 500 0 276-224 500-500 500z m0-933c-239 0-433 194-433 433s194 433 433 433 433-194 433-433-194-433-433-433z m185 665l-184-184-164 184c-13 13-34 13-47 0-13-13-13-34 0-47l164-184-186-185c-13-13-13-35 0-48 13-13 35-13 48 0l183 184 164-184c13-13 34-13 47 0 13 13 13 35 0 48l-164 183 186 186c13 13 13 34 0 47-13 13-34 13-47 0z" horiz-adv-x="1000" />

<glyph glyph-name="close-button" unicode="&#xe82d;" d="M500 850c-276 0-500-224-500-500 0-276 224-500 500-500 276 0 500 224 500 500 0 276-224 500-500 500z m232-315l-186-186 164-183c13-13 13-35 0-48-13-13-34-13-47 0l-164 184-183-184c-13-13-35-13-48 0-13 13-13 35 0 48l186 185-164 184c-13 13-13 34 0 47s34 13 47 0l164-184 184 184c13 13 34 13 47 0 13-13 13-34 0-47z" horiz-adv-x="1000" />

<glyph glyph-name="cloud-arrow-donwload" unicode="&#xe82e;" d="M813 350l-7-1c4 21 7 42 7 64 0 172-140 312-313 312-173 0-312-140-312-312l0-4c-106-15-188-105-188-215 0-110 82-201 188-216v-3h312l-195 250h133v250c0 35 28 63 62 63s63-28 63-63v-250h132l-195-250h313c103 0 187 84 187 188s-84 187-187 187z" horiz-adv-x="1000" />

<glyph glyph-name="compass-east" unicode="&#xe82f;" d="M500 850c-276 0-500-224-500-500s224-500 500-500 500 224 500 500-224 500-500 500z m245-298l-72-116-49-78 1-8c0-69-56-125-125-125l-8 1-78-48-116-73c-5-3-11-5-17-5-8 0-16 3-22 9-10 10-12 26-4 39l72 116 49 78-1 8c0 69 56 125 125 125l8-1 78 49 116 72c12 8 28 6 39-4 10-10 12-26 4-39z" horiz-adv-x="1000" />

<glyph glyph-name="computer-mouse-cursor" unicode="&#xe830;" d="M784 221l-520 618c-8 10-22 14-35 9-12-4-20-16-20-29v-816c0-13 9-25 21-29l10-2c10 0 19 5 25 13l140 188 97-277c12-36 51-55 87-42 35 12 54 51 42 87l-96 272 219-43c13-2 26 4 33 15 7 12 5 26-3 36z m-344 74c-12 2-24-2-31-12l-138-185v635l408-484-239 46z" horiz-adv-x="1000" />

<glyph glyph-name="computer-screen" unicode="&#xe831;" d="M938 788h-875c-35 0-63-28-63-63v-562c0-35 28-63 63-63h312c0-45-2-104-19-125h-13c-17 0-30-14-30-31s13-32 30-32h314c17 0 31 15 31 32s-14 31-31 31h-13c-17 21-19 80-19 125h313c34 0 62 28 62 63v562c0 35-28 63-62 63z m0-563h-875v500h875v-500z" horiz-adv-x="1000" />

<glyph glyph-name="condense-button-arrows-in-a-square" unicode="&#xe832;" d="M938 850h-875c-35 0-63-28-63-62v-876c0-34 28-62 63-62h875c34 0 62 28 62 62v876c0 34-28 62-62 62z m-500-844c0-17-14-31-32-31-17 0-31 14-31 31v175l-197-197c-12-12-32-12-44 0-12 12-12 32 0 44l197 197h-175c-17 0-31 14-31 31s14 32 31 32h250l12-3c8-3 14-9 17-17l3-12v-250z m406 407h-250l-12 2-10 7 0 0-1 0-6 10-2 12v250c0 17 14 31 31 31s31-14 31-31v-175l197 197c12 12 32 12 44 0 12-12 12-32 0-44l-197-197h175c17 0 31-14 31-31 0-17-14-31-31-31z" horiz-adv-x="1000" />

<glyph glyph-name="condensing-arrows" unicode="&#xe833;" d="M990 840c-14 13-37 13-51 0l-296-297v200c0 20-16 36-36 36s-36-16-36-36v-286l3-14 8-11 0 0 0 0 12-8 13-3h286c20 0 36 16 36 36s-16 36-36 36h-200l297 296c14 14 14 37 0 51z m-583-564l-14 3h-286c-20 0-36-17-36-36 0-20 16-36 36-36h200l-296-296c-15-14-15-37-1-51 14-13 37-13 51 0l296 297v-200c0-20 16-36 36-36 20 0 36 16 36 36v286l-3 13c-4 9-11 16-19 20z" horiz-adv-x="1000" />

<glyph glyph-name="contacts-agenda" unicode="&#xe834;" d="M0 788v-876c0-34 28-62 63-62h62v1000h-62c-35 0-63-28-63-62z m813 62h-625v-1000h625c34 0 62 28 62 62v876c0 34-28 62-62 62z m-285-241c52 0 94-42 94-94 0-53-42-95-94-95-52 0-95 42-95 95s43 94 95 94z m-153-434c0 114 69 207 155 207 85 0 155-93 155-207 0-115-310-115-310 0z" horiz-adv-x="1000" />

<glyph glyph-name="document-page-with-text-lines" unicode="&#xe835;" d="M875 850h-750c-34 0-62-28-62-62v-876c0-34 28-62 62-62h750c35 0 63 28 63 62v876c0 34-28 62-63 62z m0-938h-750v876h750v-876z m-406 688h250c17 0 31 14 31 31s-14 32-31 32h-250c-17 0-31-14-31-32s14-31 31-31z m-188-187h438c17 0 31 14 31 31 0 17-14 31-31 31h-438c-17 0-31-14-31-31 0-17 14-31 31-31z m0-188h438c17 0 31 14 31 31s-14 32-31 32h-438c-17 0-31-15-31-32s14-31 31-31z m0-187h438c17 0 31 14 31 31s-14 31-31 31h-438c-17 0-31-14-31-31s14-31 31-31z" horiz-adv-x="1000" />

<glyph glyph-name="documents-button" unicode="&#xe836;" d="M875 725h-62v63c0 34-28 62-63 62h-625c-34 0-62-28-62-62v-750c0-35 28-63 62-63h63v-63c0-34 28-62 62-62h625c35 0 63 28 63 62v751c0 34-28 62-63 62z m-750-687v750h625v-750h-625z m750-126h-625v63h500c35 0 63 28 63 63v625h62v-751z m-219 751h-312c-17 0-31-14-31-32s14-31 31-31h312c17 0 32 14 32 31s-15 32-32 32z m0-188h-437c-17 0-31-14-31-31s14-31 31-31h437c17 0 32 14 32 31s-15 31-32 31z m0-125h-437c-17 0-31-14-31-31 0-17 14-31 31-31h437c17 0 32 14 32 31 0 17-15 31-32 31z m0-125h-437c-17 0-31-14-31-31 0-17 14-31 31-31h437c17 0 32 14 32 31 0 17-15 31-32 31z" horiz-adv-x="1000" />

<glyph glyph-name="double-arrow-left" unicode="&#xe837;" d="M162 350l343 389c26 25 26 66 0 92-25 25-66 25-92 0l-384-434c-13-13-19-30-19-47 0-17 6-34 19-47l384-434c26-25 67-25 92 0 26 25 26 67 0 92l-343 389z m465 0l343 389c26 25 26 67 1 92-26 25-67 25-93 0l-383-434c-13-13-20-30-19-47-1-17 6-34 19-47l383-434c26-25 67-25 92 0 26 25 26 67 0 92l-343 389z" horiz-adv-x="1000" />

<glyph glyph-name="double-chat" unicode="&#xe838;" d="M1000 233c0 89-50 169-128 222 6-25 9-50 9-76 0-202-172-371-398-407 48-20 102-31 159-31 53 0 104 10 150 27 58-19 121-25 174-25-28 33-46 65-60 93 58 52 94 121 94 197z m-215 177c0 192-176 349-393 349s-392-157-392-349c0-90 39-176 109-241-16-38-36-74-62-107-7-9-8-23-3-33 6-11 17-17 28-17h2c33 1 99 23 168 68 38-7 121-19 151-19 220 0 392 153 392 349z" horiz-adv-x="1000" />

<glyph glyph-name="down-arrow-1" unicode="&#xe839;" d="M958 350c-23 0-41-19-41-42v-316l-846 846c-16 16-42 16-59 0s-16-43 0-59l846-846h-316c-23 0-42-18-42-41s19-42 42-42h416l16 3c10 4 19 13 23 23l3 15v417c0 23-19 42-42 42z" horiz-adv-x="1000" />

<glyph glyph-name="down-arrow-button" unicode="&#xe83a;" d="M854 704c-196 195-512 195-707 0s-196-512 0-708c195-195 511-195 707 0 195 196 195 512 0 708z m-106-153l-367-368h202c18 0 33-15 33-33 0-18-15-33-33-33h-283l-13 2-10 7 0 1-1 0-7 10-2 13v283c0 18 15 33 33 33 19 0 33-15 33-33v-202l368 367c13 13 34 13 47 0 13-13 13-34 0-47z" horiz-adv-x="1000" />

<glyph glyph-name="down-arrow-directional" unicode="&#xe83b;" d="M500 850c-276 0-500-224-500-500s224-500 500-500 500 224 500 500-224 500-500 500z m245-558l-224-198c-7-6-16-10-24-10-9 0-18 4-25 10l-224 198c-13 13-13 35 0 48 13 13 35 13 48 0l201-177 200 177c13 13 35 13 48 0 13-13 13-34 0-48z m0 241l-224-199c-7-6-16-9-24-9-9 0-18 3-25 9l-224 199c-13 13-13 34 0 47 13 13 35 13 48 0l201-177 200 177c13 13 35 13 48 0 13-13 13-34 0-47z" horiz-adv-x="1000" />

<glyph glyph-name="down-arrow-outline" unicode="&#xe83c;" d="M981 614c-26 26-69 26-95 0l-386-386-386 386c-26 26-68 26-94 0s-27-69 0-95l433-433c13-13 30-19 47-19 17 0 34 6 47 19l434 433c26 26 26 69 0 95z" horiz-adv-x="1000" />

<glyph glyph-name="down-arrow" unicode="&#xe83d;" d="M500 850c-276 0-500-224-500-500 0-276 224-500 500-500 276 0 500 224 500 500 0 276-224 500-500 500z m224-590l-200-200-11-7c-8-4-17-4-26 0l-10 7 0 0-200 200c-13 13-13 34 0 47 13 13 34 13 47 0l143-143v519c0 19 15 34 33 34 18 0 33-15 33-34v-519l143 143c13 13 35 13 48 0 13-13 13-34 0-47z" horiz-adv-x="1000" />

<glyph glyph-name="download-folder" unicode="&#xe83f;" d="M938 756h-313c-34 0-62-28-62-62 0 0-9-58-63-63h-437c-35 0-63-27-63-61v-564c0-34 28-62 63-62h875c34 0 62 28 62 62v688c0 34-28 62-62 62z m-438-812l-195 250h133v250c0 35 28 63 62 63s63-28 63-63v-250h132l-195-250z" horiz-adv-x="1000" />

<glyph glyph-name="download-from-the-cloud" unicode="&#xe840;" d="M818 364c58 134 22 220-7 261-45 62-126 96-197 83-124-24-176-108-176-281v-145l-73 73c-12 12-32 12-44 0-12-13-12-32 0-45l126-125c6-7 14-9 23-9 8-1 16 2 22 9l127 126c12 12 12 32 0 44-12 12-32 12-44 0l-75-74v146c0 180 62 207 126 219 40 8 100-9 134-58 42-58 34-145-23-245-6-10-5-23 2-33 7-10 19-15 31-13 7 1 30 5 44 5 68 0 124-56 124-125s-56-125-125-125l-621-1c-73 11-129 80-129 157 0 77 57 143 134 154l27 4c15 2 26 15 26 31l0 33c0 112 69 204 164 219 17 2 29 18 26 35-3 17-18 29-36 26-125-19-216-137-217-280l1-6c-107-16-188-108-188-216 0-109 79-203 188-219h625c103 0 187 84 187 188 0 102-82 185-182 187z" horiz-adv-x="1000" />

<glyph glyph-name="downloading-drawer" unicode="&#xe841;" d="M875 725c-18 39-49 63-84 63h-588c-34 0-62-24-78-63l-125-436v-345c0-17 14-32 31-32h938c17 0 31 15 31 32v341l-125 440z m-691-21c3 7 10 21 19 21h588c9 0 18-9 25-22l118-415h-278c-17 0-31-15-31-32v-93h-250v93c0 17-14 32-31 32h-279l119 416z m754-729h-875v250h250v-94c0-17 14-31 31-31h312c17 0 32 14 32 31v94h250v-250z" horiz-adv-x="1000" />

<glyph glyph-name="earphones" unicode="&#xe842;" d="M938 225v125c0 287-221 438-438 438-212 0-437-154-437-438v-125c-35 0-63-28-63-62v-125c0-35 28-63 63-63 0-35 28-63 62-63s63 28 63 63v250c0 35-28 63-63 63v62c0 246 189 375 375 375 181 0 375-117 375-375v-62c-34 0-62-28-62-63v-250c0-35 28-63 62-63 35 0 63 28 63 63 34 0 62 28 62 63v125c0 34-28 62-62 62z" horiz-adv-x="1000" />

<glyph glyph-name="edition-box" unicode="&#xe843;" d="M136 827c-31 31-82 31-113 0s-31-82 0-113l83-82 113 112-83 83z m802-164h-444l63-63h381v-688h-688v381l-62 63v-444c0-34 28-62 62-62h688c34 0 62 28 62 62v688c0 35-28 63-62 63z" horiz-adv-x="1000" />

<glyph glyph-name="email-envelope" unicode="&#xe845;" d="M938 725h-875c-35 0-63-28-63-62v-625c0-35 28-63 63-63h875c34 0 62 28 62 63v625c0 34-28 62-62 62z m-875-240l239-163-239-240v403z m44-447l248 248 145-99 144 100 249-249-786 0 0 0z m831 44l-241 241 241 165v-406z m0 479l-2 2-436-300-437 297v103h875v-102z" horiz-adv-x="1000" />

<glyph glyph-name="error-advice-sign" unicode="&#xe846;" d="M993-29l-437 817c-10 21-32 34-55 34h0c-23 0-44-13-55-34l-438-817c-11-20-10-43 1-62 11-19 32-31 54-31h874c22 0 43 12 54 31 12 19 12 42 2 62z m-930-30l438 818 436-818h-874z m375 502v-188c0-35 28-63 63-63 35 0 63 28 63 63v188c0 35-28 63-63 63s-63-28-63-63z" horiz-adv-x="1000" />

<glyph glyph-name="error-advise" unicode="&#xe847;" d="M982 575l-257 257c-11 11-27 18-44 18h-362c-17 0-33-7-44-18l-257-257c-11-11-18-27-18-44v-362c0-17 7-33 18-44l257-257c11-11 27-18 44-18h362c17 0 33 7 44 18l257 257c11 11 18 27 18 44v362c0 17-7 33-18 44z m-482-600c-34 0-62 28-62 63 0 34 28 62 62 62s63-28 63-62c0-35-28-63-63-63z m63 313c0-35-28-63-63-63s-62 28-62 63v375c0 34 28 62 62 62s63-28 63-62v-375z" horiz-adv-x="1000" />

<glyph glyph-name="error-triangle" unicode="&#xe848;" d="M993-29l-437 817c-10 21-32 34-55 34h0c-23 0-44-13-55-34l-438-817c-11-20-10-43 1-62 11-19 32-31 54-31h874c22 0 43 12 54 31 11 19 12 42 2 62z m-492 33c-35 0-63 28-63 63 0 35 28 63 63 63 35 0 63-28 63-63 0-35-28-63-63-63z m63 251c0-35-28-63-63-63-35 0-63 28-63 63v251c0 35 28 63 63 63 35 0 63-28 63-63v-251z" horiz-adv-x="1000" />

<glyph glyph-name="exclamation-button" unicode="&#xe849;" d="M500 850c-276 0-500-224-500-500s224-500 500-500 500 224 500 500-224 500-500 500z m0-811c-34 0-62 28-62 62 0 35 28 63 62 63s63-28 63-63c0-34-28-62-63-62z m63 249c0-35-28-63-63-63s-62 28-62 63v312c0 35 28 63 62 63s63-28 63-63v-312z" horiz-adv-x="1000" />

<glyph glyph-name="expand-arrows" unicode="&#xe84a;" d="M958 350c-23 0-41-19-41-42v-316l-775 775h316c23 0 42 18 42 41s-19 42-42 42h-416l-16-3-13-9-1 0 0-1-9-13-3-16v-416c0-23 19-42 42-42s41 19 41 42v316l775-775h-316c-23 0-42-18-42-41s19-42 42-42h416l16 3c10 4 19 13 23 23l3 15v417c0 23-19 42-42 42z" horiz-adv-x="1000" />

<glyph glyph-name="expand" unicode="&#xe84b;" d="M998 362l-7 10-125 125c-12 12-32 12-44 0-12-12-12-32 0-44l71-72h-786l71 72c13 12 13 32 0 44s-32 12-44 0l-125-125 0 0-7-10-2-12v0l2-12 7-10 0 0 125-125c12-12 32-12 44 0s13 32 0 44l-71 72h786l-71-72c-12-12-12-32 0-44 12-12 32-12 44 0l125 125 7 10 2 12v0l-2 12z" horiz-adv-x="1000" />

<glyph glyph-name="extent-option-arrows" unicode="&#xe84c;" d="M997 824c-4 10-13 19-23 23l-16 3h-416c-23 0-42-19-42-42s19-41 42-41h316l-775-775v316c0 23-18 42-41 42s-42-19-42-42v-417l3-15 9-13 0-1 1 0 13-9 16-3h416c23 0 42 19 42 42s-19 41-42 41h-316l775 775v-316c0-23 18-42 41-42s42 19 42 42v416l-3 16z" horiz-adv-x="1000" />

<glyph glyph-name="fast-forward-button-1" unicode="&#xe84d;" d="M971 397l-384 434c-25 25-67 25-92 0-26-25-26-67 0-92l343-389-343-389c-26-25-26-67 0-92 25-25 67-25 92 0l384 434c13 13 19 30 19 47s-6 34-19 47z m-447-47c1 17-6 34-19 47l-383 434c-26 25-67 25-92 0-26-25-26-67 0-92l343-389-343-389c-26-25-26-66-1-92 26-25 67-25 93 0l383 434c13 13 20 30 19 47z" horiz-adv-x="1000" />

<glyph glyph-name="fast-forward-button" unicode="&#xe84e;" d="M500 850c-276 0-500-224-500-500s224-500 500-500 500 224 500 500-224 500-500 500z m0-933c-239 0-433 194-433 433s194 433 433 433 433-194 433-433c0-239-194-433-433-433z m-62 676c-13 14-34 14-48 0-13-13-13-34 0-47l194-194-194-193c-13-13-13-34 0-48 14-13 35-13 48 0l217 218c7 6 10 15 10 23 0 9-3 18-10 24l-217 217z" horiz-adv-x="1000" />

<glyph glyph-name="film-strip-silhouette" unicode="&#xe84f;" d="M938 850h-875c-35 0-63-28-63-62v-876c0-34 28-62 63-62h875c34 0 62 28 62 62v876c0 34-28 62-62 62z m-750-938h-125v126h125v-126z m0 251h-125v125h125v-125z m0 250h-125v125h125v-125z m0 250h-125v125h125v-125z m562-751h-500v313h500v-313z m0 376h-500v500h500v-500z m188-376h-125v126h125v-126z m0 251h-125v125h125v-125z m0 250h-125v125h125v-125z m0 250h-125v125h125v-125z" horiz-adv-x="1000" />

<glyph glyph-name="four-squares" unicode="&#xe851;" d="M333 850h-250c-46 0-83-37-83-83v-250c0-46 37-84 83-84h250c46 0 84 38 84 84v250c0 46-38 83-84 83z m584 0h-250c-46 0-84-37-84-83v-250c0-46 38-84 84-84h250c46 0 83 38 83 84v250c0 46-37 83-83 83z m-584-583h-250c-46 0-83-38-83-84v-250c0-46 37-83 83-83h250c46 0 84 37 84 83v250c0 46-38 84-84 84z m584 0h-250c-46 0-84-38-84-84v-250c0-46 38-83 84-83h250c46 0 83 37 83 83v250c0 46-37 84-83 84z" horiz-adv-x="1000" />

<glyph glyph-name="gear-settings" unicode="&#xe852;" d="M997 295c2 18 3 36 3 55 0 19-1 37-3 55l-137 49c-8 27-19 53-32 78l62 130c-23 29-49 55-78 78l-131-62c-24 14-50 24-77 32l-49 137c-18 2-36 3-55 3s-37-1-55-3l-49-137c-27-8-53-18-77-32l-131 62c-29-23-55-49-78-78l62-130c-13-25-24-51-32-78l-137-49c-2-18-3-36-3-55 0-19 1-37 3-55l137-49c8-27 19-53 32-77l-62-131c23-29 49-55 78-78l131 62c24-13 50-24 77-32l49-137c18-2 36-3 55-3s37 1 55 3l49 137c27 8 53 19 78 32l130-62c29 23 55 49 78 78l-62 131c14 24 24 50 32 77l137 49z m-497-195c-138 0-250 112-250 250s112 250 250 250 250-112 250-250-112-250-250-250z" horiz-adv-x="1000" />

<glyph glyph-name="gift-box" unicode="&#xe853;" d="M0 538v-125h438v187h-375c-35 0-63-28-63-62z m875 218c0 52-39 94-125 94-81 0-144-36-187-79-19 12-41 18-65 18-22 0-43-6-62-16-43 41-106 77-186 77-86 0-125-42-125-94s39-93 125-93h250l0 0h0l0 0h250c86 0 125 42 125 93z m-487-31h-138c-28 0-62 5-62 31s34 32 62 32c62 0 109-28 141-58l-3-5z m219 3c31 31 80 60 143 60 29 0 63-6 63-32s-34-31-63-31h-142l-1 3z m-544-816c0-34 28-62 62-62h313v500h-375v-438z m875 688h-373v-187h435v125c0 34-28 62-62 62z m-373-750h310c35 0 63 28 63 62v438h-373v-500z" horiz-adv-x="1000" />

<glyph glyph-name="go-back-arrow" unicode="&#xe854;" d="M500 850c-276 0-500-224-500-500 0-276 224-500 500-500 276 0 500 224 500 500 0 276-224 500-500 500z m107-693c13-13 13-34 0-47s-34-13-47 0l-217 216c-6 7-9 15-9 24s3 17 9 24l217 216c13 13 34 13 47 0 13-13 13-34 0-47l-193-193 193-193z" horiz-adv-x="1000" />

<glyph glyph-name="go-to-back-track-button" unicode="&#xe855;" d="M500 850c-276 0-500-224-500-500 0-276 224-500 500-500 276 0 500 224 500 500 0 276-224 500-500 500z m0-933c-239 0-433 194-433 433s194 433 433 433 433-194 433-433-194-433-433-433z m88 659c-14 11-37 11-52 0l-258-205c-15-11-15-29 0-41l1-1 257-203c15-12 38-12 52 0l1 0c7 6 11 13 11 21v407c0 9-4 16-12 21l0 1z" horiz-adv-x="1000" />

<glyph glyph-name="half-black-and-half-white-star-shape" unicode="&#xe856;" d="M997 468c-7 22-27 39-51 42l-269 39-121 245c-10 21-32 35-56 35s-46-14-56-35l-121-245-269-39c-24-3-44-20-51-42-7-23-1-48 16-65l195-190-46-268c-4-24 6-48 25-62 11-8 24-12 37-12 10 0 20 3 29 8l241 127 241-127c9-5 19-8 29-8 13 0 26 4 37 12 19 14 29 38 25 62l-46 268 195 190c17 17 23 42 16 65z m-278-233l51-301-270 142v690l135-274 302-44-218-213z" horiz-adv-x="1000" />

<glyph glyph-name="hard-cover-book" unicode="&#xe858;" d="M936 850h-747c-86 0-156-69-157-155l-1 0v-687c0-88 71-158 158-158h591c34 0 62 28 62 62v657c0 17-14 31-31 31h-530l-7 0-85 0c-53 0-95 40-95 92 0 53 41 96 94 96h718v-719c0-17 13-31 30-31 17 0 33 14 33 31v750c0 17-16 31-33 31z" horiz-adv-x="1000" />

<glyph glyph-name="high-volume-outline" unicode="&#xe859;" d="M534 850l-5 0c-10 0-22-3-36-11 0 0-260-228-272-239h-143c-34 0-62-28-62-62v-383c0-35 28-63 62-63h143c12-11 272-231 272-231 14-8 26-11 36-11l5 0c23 2 39 22 44 42v916c-5 20-21 40-44 42z m-18-926c-98 82-239 202-251 212-11 12-27 19-44 19h-143v8 375h143c16 0 32 6 44 17 11 11 153 135 251 220v-851l0 0z m158 317c-15-8-21-27-13-42 5-11 16-17 27-17 5 0 10 1 15 3 63 32 102 95 102 165s-39 133-102 165c-16 8-35 2-42-14-8-15-2-34 13-42 42-21 68-63 68-109s-26-88-68-109z m-6 492c-17 4-33-7-37-24-3-17 8-34 25-37 154-30 266-165 266-322s-112-292-266-322c-17-3-28-20-25-37 3-15 16-25 31-25l6 1c183 35 316 197 316 383 0 186-133 348-316 383z" horiz-adv-x="1000" />

<glyph glyph-name="high-volume" unicode="&#xe85a;" d="M534 850c-11 1-25-2-40-11 0 0-261-228-272-239h-144c-34 0-62-28-62-62v-383c0-35 28-63 62-63h144c11-11 272-231 272-231 15-9 29-12 40-11 23 2 39 22 44 42 0 2 0 914 0 916-5 20-21 40-44 42z m140-609c-15-8-21-27-13-42 5-11 16-17 27-17 5 0 10 1 15 3 63 32 102 95 102 165s-39 133-102 165c-16 8-35 2-42-14-8-15-2-34 13-42 42-21 68-63 68-109s-26-88-68-109z m-6 492c-17 4-33-7-36-24-4-17 7-34 24-37 154-30 266-165 266-322s-112-292-266-322c-17-3-28-20-25-37 3-15 16-25 31-25l6 1c183 35 316 197 316 383s-133 348-316 383z" horiz-adv-x="1000" />

<glyph glyph-name="home-interface" unicode="&#xe85b;" d="M989 389l-468 407c-12 10-30 10-41 0l-167-145v58c0 35-28 63-63 63s-62-28-62-63v-167l-177-153c-13-11-15-31-3-44 11-13 31-14 44-3l448 389 448-389c6-5 13-8 21-8 9 0 17 4 23 11 12 13 10 33-3 44z m-449 181c-12 10-26 14-40 14-14 0-28-4-40-14l-312-256c-15-12-23-30-23-48v-307c0-34 28-62 63-62h187v312h250v-312h188c34 0 62 28 62 62v307c0 18-8 36-23 48l-312 256z" horiz-adv-x="1000" />

<glyph glyph-name="house-outline" unicode="&#xe85c;" d="M988 406l-468 375c-12 9-28 9-40 0l-167-135v79c0 35-28 63-63 63s-62-28-62-63v-179l-176-140c-14-11-16-31-5-44 11-14 30-16 44-5l74 59v-441c0-35 28-63 63-63h187c35 0 63 28 63 63v250h125v-250c0-35 28-63 62-63h188c34 0 62 28 62 63v441l74-59c6-5 13-7 20-7 9 0 18 4 24 12 11 13 9 33-5 44z m-175-431h-188v312h-250v-312h-188v491l313 250 313-250v-491z" horiz-adv-x="1000" />

<glyph glyph-name="inbox" unicode="&#xe85d;" d="M999 225l-124 501c-18 39-49 62-84 62h-588c-34 0-62-23-78-62l-125-500v-283c0-17 14-31 31-31h938c17 0 31 14 31 31v279l-1 3z m-73 31c0-17-14-31-31-31h0-239c-17 0-31-15-31-32v-61c0-17-14-31-31-31l-2-1h-185l-1 1c-17 0-31 14-31 31v61c0 17-14 32-31 32h-239 0c-17 0-32 14-32 31l0 0 111 449c3 6 10 21 19 21h588c9 0 18-9 25-23l110-447 0 0z" horiz-adv-x="1000" />

<glyph glyph-name="information-button" unicode="&#xe85e;" d="M500 850c-276 0-500-224-500-500s224-500 500-500 500 224 500 500-224 500-500 500z m63-750c0-34-28-62-63-62s-62 28-62 62v313c0 34 28 62 62 62s63-28 63-62v-313z m-63 437c-34 0-62 28-62 62s28 63 62 63 63-28 63-63-28-62-63-62z" horiz-adv-x="1000" />

<glyph glyph-name="key-outline" unicode="&#xe85f;" d="M969 850h-135c-8 0-15-3-21-7l-442-374c-21 4-40 6-58 6-173 0-313-140-313-312s140-313 313-313 312 140 312 313c0 32-5 65-16 96l95 62c9 6 15 16 15 26v114l119 6c15 1 28 13 29 29l11 120 104 50c11 5 18 16 18 28v125c0 17-14 31-31 31z m-813-781c0 34 28 62 63 62 24 0 46-14 56-36 4-8 6-17 6-26 0-35-28-63-62-63s-63 28-63 63z m782 644l-102-48c-10-5-17-15-18-26l-11-111-121-6c-17-1-30-15-30-31v-127l-102-66c-12-8-17-24-11-38 13-32 20-64 20-97 0-138-113-251-250-251-48 0-92 14-129 37 11-3 22-5 35-5 69 0 125 56 125 125 0 18-4 36-12 53-21 44-65 72-113 72-69 0-125-56-125-125 0-13 2-24 5-35-23 37-36 81-36 129 0 137 112 250 250 250 18 0 37-3 59-8 9-3 20 0 27 6l446 377h93v-75z" horiz-adv-x="1000" />

<glyph glyph-name="laptop-silhouette" unicode="&#xe860;" d="M968 69h-30v562c0 35-28 63-63 63h-750c-34 0-62-28-62-63v-562h-31c-18 0-32-14-32-31s14-32 32-32h936c18 0 32 14 32 32s-14 31-32 31z m-93 65h-750v497h750v-497z" horiz-adv-x="1000" />

<glyph glyph-name="left-up-arrow-in-a-circle" unicode="&#xe861;" d="M854 704c-196 195-512 195-707 0s-196-512 0-708c195-195 511-195 707 0 195 196 195 512 0 708z m-106-602c-13-13-34-13-47 0l-368 368v-203c0-18-15-33-33-33-18 0-33 15-33 33v283l2 13 7 10 1 1 0 0 10 7 13 2h283c18 0 33-15 33-33s-15-33-33-33h-202l367-368c13-13 13-34 0-47z" horiz-adv-x="1000" />

<glyph glyph-name="levels-adjust" unicode="&#xe862;" d="M208 683v125c0 23-18 42-41 42s-42-19-42-42v-125c-46 0-83-37-83-83v-83c0-46 37-84 83-84v-541c0-23 19-42 42-42s41 19 41 42v541c46 0 84 38 84 84v83c0 46-38 83-84 83z m0-166h-83v83h83v-83z m334-250v541c0 23-19 42-42 42-23 0-42-19-42-42v-541c-46 0-83-38-83-84v-83c0-46 37-83 83-83v-125c0-23 19-42 42-42 23 0 42 19 42 42v125c46 0 83 37 83 83v83c0 46-37 84-83 84z m0-167h-84v83h84v-83z m333 417v291c0 23-19 42-42 42s-41-19-41-42v-291c-46 0-84-38-84-84v-83c0-46 38-83 84-83v-375c0-23 18-42 41-42s42 19 42 42v375c46 0 83 37 83 83v83c0 46-37 84-83 84z m0-167h-83v83h83v-83z" horiz-adv-x="1000" />

<glyph glyph-name="levels-adjustment" unicode="&#xe863;" d="M42 642h541c0-46 38-84 84-84h83c46 0 83 38 83 84h125c23 0 42 18 42 41s-19 42-42 42h-125c0 46-37 83-83 83h-83c-46 0-84-37-84-83h-541c-23 0-42-19-42-42s19-41 42-41z m625 83h83v-83h-83v83z m291-333h-541c0 46-38 83-84 83h-83c-46 0-83-37-83-83h-125c-23 0-42-19-42-42 0-23 19-42 42-42h125c0-46 37-83 83-83h83c46 0 84 37 84 83h541c23 0 42 19 42 42 0 23-19 42-42 42z m-625-84h-83v84h83v-84z m625-250h-291c0 46-38 84-84 84h-83c-46 0-83-38-83-84h-375c-23 0-42-18-42-41s19-42 42-42h375c0-46 37-83 83-83h83c46 0 84 37 84 83h291c23 0 42 19 42 42s-19 41-42 41z m-375-83h-83v83h83v-83z" horiz-adv-x="1000" />

<glyph glyph-name="line-button" unicode="&#xe864;" d="M500 850c-276 0-500-224-500-500 0-276 224-500 500-500 276 0 500 224 500 500 0 276-224 500-500 500z m267-533h-534c-18 0-33 15-33 33 0 18 15 33 33 33h534c18 0 33-15 33-33 0-18-15-33-33-33z" horiz-adv-x="1000" />

<glyph glyph-name="link-chain" unicode="&#xe865;" d="M585 204l-339 339c-37 37-37 97 0 134l50 50c37 37 98 37 135 0l339-338c16 63 1 133-49 182l-223 223c-74 75-195 75-269 0l-50-50c-74-74-74-194 0-268l224-223c49-50 119-65 182-49z m236 20l-224 223c-49 50-119 66-182 49l339-339c37-37 37-97 0-134l-50-51c-37-37-98-37-134 0l-339 340c-17-64-1-133 48-183l224-223c74-75 194-75 268 0l50 50c74 74 74 194 0 268z" horiz-adv-x="1000" />

<glyph glyph-name="links" unicode="&#xe866;" d="M79 654c0 27 14 62 33 81 25 25 93 53 124 22l295-295c4 15 6 30 6 44 0 41-16 79-44 108l-200 200c-60 60-179 37-238-22-34-34-55-86-55-137 0-40 13-75 37-98l199-200c40-40 99-54 152-38l-295 295c-9 9-14 23-14 40z m885-511l-200 200c-40 40-99 54-152 38l295-295c9-9 14-23 14-40 0-27-14-62-33-82-25-24-93-52-124-21l-295 295c-4-14-6-29-6-44 0-41 16-79 44-108l200-200c60-60 179-37 238 22 34 34 55 86 55 137 0 40-13 75-36 98z m-677 420c-8-8-12-18-12-30s4-21 12-29l367-367c16-17 43-17 59 0 8 8 12 18 12 30 0 11-4 22-12 29l-367 367c-16 17-43 17-59 0z" horiz-adv-x="1000" />

<glyph glyph-name="list-button" unicode="&#xe867;" d="M957 393h-691c-24 0-44-19-44-43 0-24 20-43 44-43h691c24 0 43 19 43 43 0 24-19 43-43 43z m0 346h-691c-24 0-44-19-44-43s20-44 44-44h691c24 0 43 20 43 44s-19 43-43 43z m0-691h-691c-24 0-44-20-44-43 0-24 20-44 44-44h691c24 0 43 20 43 44 0 23-19 43-43 43z m-934 235l-23-22v-17h136v23h-96v1l17 16c45 43 74 75 74 114 0 31-20 62-65 62-25 0-46-9-61-22l9-20c10 8 26 18 46 18 31 0 42-20 42-41 0-32-25-60-79-112z m35-362c-20 0-39 8-47 13l-8-22c10-7 31-14 55-14 52 0 78 30 78 64 0 30-21 49-47 55v0c26 10 39 28 39 51 0 25-19 50-61 50-23 0-45-8-56-16l8-21c9 7 25 14 42 14 27 0 38-15 38-32 0-25-27-36-48-36h-16v-22h16c28 0 55-12 55-42 1-18-11-42-48-42z" horiz-adv-x="1000" />

<glyph glyph-name="list" unicode="&#xe868;" d="M958 392h-666c-23 0-42-19-42-42 0-23 19-42 42-42h666c23 0 42 19 42 42 0 23-19 42-42 42z m-666 250h666c23 0 42 18 42 41s-19 42-42 42h-666c-23 0-42-19-42-42s19-41 42-41z m666-584h-666c-23 0-42-18-42-41s19-42 42-42h666c23 0 42 19 42 42s-19 41-42 41z" horiz-adv-x="1000" />

<glyph glyph-name="little-black-folder" unicode="&#xe869;" d="M938 756h-313c-34 0-62-28-62-62 0 0-9-58-63-63h-437c-35 0-63-27-63-61v-564c0-34 28-62 63-62h875c34 0 62 28 62 62v688c0 34-28 62-62 62z" horiz-adv-x="1000" />

<glyph glyph-name="little-circular-button-with-up-arrow-triangle" unicode="&#xe86b;" d="M500 850c-276 0-500-224-500-500 0-276 224-500 500-500 276 0 500 224 500 500 0 276-224 500-500 500z m224-588l0 0c-5-7-13-12-21-12h-407c-8 0-16 4-21 11l0 1c-12 14-12 38 0 52l203 257 1 2c11 14 30 14 41 0l204-259c12-14 12-38 0-52z" horiz-adv-x="1000" />

<glyph glyph-name="little-down-triangular-arrow" unicode="&#xe86c;" d="M982 641l-1 0c-11 13-27 22-45 22h-872c-18 0-34-9-45-22l-1 0c-24-27-24-71 0-98l438-485c24-27 63-27 88 0l1 3 437 482c24 27 24 71 0 98z" horiz-adv-x="1000" />

<glyph glyph-name="little-envelope" unicode="&#xe86d;" d="M938 725h-875c-35 0-63-28-63-62v-105l500-200 500 200v105c0 34-28 62-62 62z m-938-269v-418c0-35 28-63 63-63h875c34 0 62 28 62 63v418l-500-200-500 200z" horiz-adv-x="1000" />

<glyph glyph-name="little-folder" unicode="&#xe86e;" d="M938 788h-313c-34 0-62-28-62-63 0 0-9-57-63-62h-437c-35 0-63-27-63-62v-63h1000v187c0 35-28 63-62 63z m-938-813c0-35 28-63 63-63h875c34 0 62 28 62 63v500h-1000v-500z" horiz-adv-x="1000" />

<glyph glyph-name="little-pushpin" unicode="&#xe86f;" d="M760 295c-26 29-71 45-104 53v324c33 11 61 25 83 41 18 14 28 37 24 60-3 23-19 42-42 50-30 10-99 27-221 27-128 0-199-20-224-28-22-8-38-27-41-50-4-22 6-45 24-59 22-17 51-31 85-42h0v-323c-33-8-78-24-104-53-13-15-18-36-14-56 5-19 19-35 37-43 45-19 120-31 206-33l0 0v-188c0-35 14-125 31-125 17 0 31 90 31 125v188l0 0c86 2 162 14 206 33 18 7 32 24 37 43 4 20-1 41-14 56z m-260-70c-113 0-184 16-213 28 12 13 38 26 72 35l47 12v416l-43 14c-32 11-54 23-66 33 33 11 100 25 203 25 101 0 168-13 202-25-14-9-35-21-66-32l-42-14v-417l47-12c35-9 61-22 72-35-29-12-99-28-213-28z" horiz-adv-x="1000" />

<glyph glyph-name="little-table-grid" unicode="&#xe870;" d="M999 760c-3 32-29 59-61 59h-875c-33 0-59-27-62-59h-1v-816c0-35 28-63 63-63h875c34 0 62 28 62 63v816h-1z m-686-816h-250v187h250v-187z m0 245h-250v192h250v-192z m0 255h-250v187h250v-187z m312-500h-250v187h250v-187z m0 245h-250v192h250v-192z m0 255h-250v187h250v-187z m313-500h-250v187h250v-187z m0 245h-250v192h250v-192z m0 255h-250v187h250v-187z" horiz-adv-x="1000" />

<glyph glyph-name="little-thin-expand-arrows" unicode="&#xe871;" d="M997 828c-3 9-10 16-19 19l-14 3h-285c-20 0-36-16-36-36s16-35 36-35h199l-296-297c-14-13-14-36 0-50 14-14 37-14 50 0l297 296v-199c0-20 16-36 35-36 20 0 36 16 36 36v285l-3 14z m-629-560l-297-296v199c0 20-16 36-35 36s-36-16-36-36v-285l3-14 7-11 0-1 1 0 11-7 14-3h285c20 0 36 16 36 36 0 19-16 35-36 35h-199l296 297c14 13 14 36 0 50-14 14-36 14-50 0z" horiz-adv-x="1000" />

<glyph glyph-name="loud-shape" unicode="&#xe872;" d="M813 350l-7-1c4 21 7 42 7 64 0 172-140 312-313 312-173 0-312-140-312-312l0-4c-106-15-188-105-188-215 0-110 82-201 188-216v-3h625c103 0 187 84 187 188s-84 187-187 187z m0-312h-606l-11 2c-76 11-133 77-133 154 0 77 57 143 134 154 31 4 54 31 53 62l0 6c2 136 113 247 250 247 138 0 250-113 250-250 0-17-2-34-5-51-4-19 1-38 13-53 12-14 30-22 48-22l2 0 7 1c68-2 123-57 123-125 0-69-56-125-125-125z" horiz-adv-x="1000" />

<glyph glyph-name="lovers-heart" unicode="&#xe873;" d="M1000 489h0c-3 153-128 290-281 290-89 0-167-47-219-115-52 68-130 115-219 115-153 0-278-137-280-290h-1l0-3 0-2 1-12c14-391 495-551 495-551s488 160 503 551l1 12 0 2 0 3z" horiz-adv-x="1000" />

<glyph glyph-name="loving-heart-shape" unicode="&#xe874;" d="M1000 489h0c-3 153-128 290-281 290-89 0-167-47-219-115-52 68-130 115-219 115-153 0-278-137-280-290h-1l0-3 0-2 1-12c14-391 495-551 495-551s488 160 503 551l1 12 0 2 0 3z m-64-15c-11-300-353-453-440-486-85 33-422 185-432 487l-1 9 0 4c2 124 102 228 218 228 64 0 126-32 169-90 12-15 30-24 50-24 20 0 38 9 50 24 43 58 105 90 169 90 116 0 216-104 218-228l0-4-1-10z" horiz-adv-x="1000" />

<glyph glyph-name="low-volume-1" unicode="&#xe875;" d="M624 850c-12 1-25-2-41-11 0 0-260-228-272-239h-143c-35 0-63-28-63-62v-383c0-35 28-63 63-63h143c12-11 272-231 272-231 16-9 29-12 41-11 23 2 39 22 44 42 0 2 0 914 0 916-5 20-21 40-44 42z m168-335c-15 8-34 2-42-14-7-15-1-34 14-42 42-21 68-63 68-109s-26-88-68-109c-15-8-21-27-14-42 6-11 17-17 28-17 5 0 10 1 14 3 63 32 103 95 103 165s-40 133-103 165z" horiz-adv-x="1000" />

<glyph glyph-name="low-volume" unicode="&#xe876;" d="M623 850l-4 0c-11 0-22-3-36-11 0 0-260-228-272-239h-143c-35 0-63-28-63-62v-383c0-35 28-63 63-63h143c11-11 272-231 272-231 14-8 25-11 36-11l4 0c23 2 40 22 45 42v916c-5 20-22 40-45 42z m-18-926c-97 82-238 202-250 212-12 12-27 19-44 19h-143v383h143c16 0 32 6 44 17 11 11 152 135 250 220v-851l0 0z m187 591c-15 8-34 2-42-14-7-15-1-34 14-42 42-21 68-63 68-109s-26-88-68-109c-15-8-21-27-14-42 6-11 17-17 28-17 5 0 10 1 14 3 63 32 103 95 103 165s-40 133-103 165z" horiz-adv-x="1000" />

<glyph glyph-name="magnifying-glass-searcher" unicode="&#xe877;" d="M595 850c-223 0-405-181-405-405 0-96 34-184 90-254l-267-267c-17-17-17-45 0-61 16-17 44-17 61 0l267 267c70-56 158-90 254-90 224 0 405 182 405 405s-181 405-405 405z m0-747c-189 0-342 153-342 342s153 343 342 343 343-154 343-343-154-342-343-342z" horiz-adv-x="1000" />

<glyph glyph-name="magnifying-glass-zoom-out" unicode="&#xe878;" d="M594 850c-225 0-406-182-406-406 0-97 33-185 90-255l-265-265c-17-17-17-44 0-61 17-17 44-17 61 0l265 265c70-57 158-91 255-91 224 0 406 182 406 407s-182 406-406 406z m187-438h-375c-17 0-31 14-31 32 0 17 14 31 31 31h375c18 0 32-14 32-31 0-18-14-32-32-32z" horiz-adv-x="1000" />

<glyph glyph-name="map-pin-silhouette" unicode="&#xe879;" d="M500 850c-194 0-351-157-351-351 0-15 1-29 3-44 30-274 325-590 325-590 6-6 11-9 15-12l1 0 10-3 9 3 1 0c5 3 10 7 15 12 0 0 291 317 320 591 2 14 3 29 3 43 0 194-157 351-351 351z m0-577c-124 0-226 102-226 226s102 226 226 226 226-101 226-226-102-226-226-226z" horiz-adv-x="1000" />

<glyph glyph-name="mathematical-addition-sign" unicode="&#xe87a;" d="M944 406h-388v388c0 31-25 56-56 56-31 0-56-25-56-56v-388h-388c-31 0-56-25-56-56 0-31 25-56 56-56h388v-388c0-31 25-56 56-56 31 0 56 25 56 56v388h388c31 0 56 25 56 56 0 31-25 56-56 56z" horiz-adv-x="1000" />

<glyph glyph-name="menu-button" unicode="&#xe87b;" d="M500 850c-276 0-500-224-500-500 0-276 224-500 500-500 276 0 500 224 500 500 0 276-224 500-500 500z m0-933c-239 0-433 194-433 433s194 433 433 433 433-194 433-433-194-433-433-433z m267 466h-534c-18 0-33-15-33-33 0-18 15-33 33-33h534c18 0 33 15 33 33 0 18-15 33-33 33z m0 200h-534c-18 0-33-15-33-33 0-18 15-33 33-33h534c18 0 33 15 33 33 0 18-15 33-33 33z m0-400h-534c-18 0-33-15-33-33 0-18 15-33 33-33h534c18 0 33 15 33 33 0 18-15 33-33 33z" horiz-adv-x="1000" />

<glyph glyph-name="menu-lines" unicode="&#xe87c;" d="M950 400h-900c-28 0-50-22-50-50 0-28 22-50 50-50h900c28 0 50 22 50 50 0 28-22 50-50 50z m-900 200h900c28 0 50 22 50 50s-22 50-50 50h-900c-28 0-50-22-50-50s22-50 50-50z m900-500h-900c-28 0-50-22-50-50 0-27 22-50 50-50h900c28 0 50 23 50 50 0 28-22 50-50 50z" horiz-adv-x="1000" />

<glyph glyph-name="menu-square-button" unicode="&#xe87d;" d="M933 850h-866c-37 0-67-30-67-67v-866c0-37 30-67 67-67h866c37 0 67 30 67 67v866c0 37-30 67-67 67z m-166-733h-534c-18 0-33 15-33 33 0 18 15 33 33 33h534c18 0 33-15 33-33 0-18-15-33-33-33z m0 200h-534c-18 0-33 15-33 33 0 18 15 33 33 33h534c18 0 33-15 33-33 0-18-15-33-33-33z m0 200h-534c-18 0-33 15-33 33 0 18 15 33 33 33h534c18 0 33-15 33-33 0-18-15-33-33-33z" horiz-adv-x="1000" />

<glyph glyph-name="menu-square" unicode="&#xe87e;" d="M933 850h-866c-37 0-67-30-67-67v-866c0-37 30-67 67-67h866c37 0 67 30 67 67v866c0 37-30 67-67 67z m0-933h-866v866h866v-866z m-700 400h534c18 0 33 15 33 33 0 18-15 33-33 33h-534c-18 0-33-15-33-33 0-18 15-33 33-33z m0 200h534c18 0 33 15 33 33 0 18-15 33-33 33h-534c-18 0-33-15-33-33 0-18 15-33 33-33z m0-400h534c18 0 33 15 33 33 0 18-15 33-33 33h-534c-18 0-33-15-33-33 0-18 15-33 33-33z" horiz-adv-x="1000" />

<glyph glyph-name="microphone-outline" unicode="&#xe87f;" d="M781 475c-17 0-31-14-31-31v-94c0-164-126-250-250-250-120 0-250 78-250 250v94c0 17-14 31-31 31s-31-14-31-31v-94c0-177 117-282 250-306v-132h-94c-17 0-31-14-31-31s14-31 31-31h312c17 0 32 14 32 31s-15 31-32 31h-93v132c130 26 250 131 250 306v94c0 17-15 31-32 31z m-281-250c69 0 125 56 125 125v375c0 69-56 125-125 125s-125-56-125-125v-375c0-69 56-125 125-125z" horiz-adv-x="1000" />

<glyph glyph-name="mini-creditcard" unicode="&#xe880;" d="M938 725h-875c-35 0-63-28-63-62v-625c0-35 28-63 63-63h875c34 0 62 28 62 63v625c0 34-28 62-62 62z m0-687h-875v375h875v-375z m0 497h-875v128h875v-128z m-782-435h313c17 0 31 14 31 31s-14 32-31 32h-313c-17 0-31-15-31-32s14-31 31-31z" horiz-adv-x="1000" />

<glyph glyph-name="minus-button" unicode="&#xe881;" d="M500 850c-276 0-500-224-500-500 0-276 224-500 500-500 276 0 500 224 500 500 0 276-224 500-500 500z m0-933c-239 0-433 194-433 433s194 433 433 433 433-194 433-433-194-433-433-433z m267 466h-534c-18 0-33-15-33-33 0-18 15-33 33-33h534c18 0 33 15 33 33 0 18-15 33-33 33z" horiz-adv-x="1000" />

<glyph glyph-name="minus-key" unicode="&#xe882;" d="M889 850h-778c-61 0-111-50-111-111v-778c0-61 50-111 111-111h778c61 0 111 50 111 111v778c0 61-50 111-111 111z m0-889h-778v778h778v-778z m-611 333h444c31 0 56 25 56 56 0 31-25 56-56 56h-444c-31 0-56-25-56-56 0-31 25-56 56-56z" horiz-adv-x="1000" />

<glyph glyph-name="minus-symbol" unicode="&#xe883;" d="M944 406h-888c-31 0-56-25-56-56 0-31 25-56 56-56h888c31 0 56 25 56 56 0 31-25 56-56 56z" horiz-adv-x="1000" />

<glyph glyph-name="move-arrows" unicode="&#xe884;" d="M997 363l-7 11-133 133c-13 13-34 13-47 0-13-13-13-34 0-47l76-77h-353v353l77-76c13-13 34-13 47 0 13 13 13 34 0 47l-133 133-1 1-10 6-13 3h0l-13-3-10-6-1-1-133-133c-13-13-13-34 0-47s34-13 47 0l77 76v-353h-353l76 77c13 13 13 34 0 47s-34 13-47 0l-133-133 0-1-7-10-3-13v0l3-13 7-10 0 0 133-134c13-13 34-13 47 0 13 13 13 34 0 47l-76 77h353v-353l-77 76c-13 13-34 13-47 0-13-13-13-34 0-47l134-133 10-8 13-2h0l13 3 11 7 133 133c13 13 13 34 0 47-13 13-34 13-47 0l-77-76v353h353l-76-77c-13-13-13-34 0-47 13-13 34-13 47 0l133 134 8 10 2 13v0l-3 13z" horiz-adv-x="1000" />

<glyph glyph-name="msn-user-profile" unicode="&#xe885;" d="M500 475c100 0 188 87 188 188s-88 187-188 187c-100 0-187-87-187-187s87-188 187-188z m0-62c-164 0-312-178-312-398 0-220 625-220 625 0 0 220-149 398-313 398z" horiz-adv-x="1000" />

<glyph glyph-name="mute-volume-interface-symbol" unicode="&#xe886;" d="M518 850c-11 1-24-2-40-11 0 0-261-228-272-239h-143c-35 0-63-28-63-62v-383c0-35 28-63 63-63h143c11-11 272-231 272-231 16-9 29-12 40-11 23 2 40 22 45 42 0 2 0 914 0 916-5 20-22 40-45 42z m363-500l108 108c15 15 15 39 0 54-15 15-39 15-54 0l-108-108-108 108c-15 15-39 15-54 0-15-15-15-39 0-54l108-108-108-108c-15-15-15-39 0-54 15-15 39-15 54 0l108 108 108-108c15-15 39-15 54 0 15 15 15 39 0 54l-108 108z" horiz-adv-x="1000" />

<glyph glyph-name="mute-volume" unicode="&#xe887;" d="M518 850l-5 0c-10 0-22-3-35-11 0 0-261-228-272-239h-143c-35 0-63-28-63-62v-383c0-35 28-63 63-63h143c11-11 272-231 272-231 13-8 25-11 35-11l5 0c23 2 40 22 45 42v916c-5 20-22 40-45 42z m-18-926c-97 82-239 202-250 213-12 11-28 18-44 18h-143v8 375h143c16 0 32 6 43 17 12 11 153 135 251 220v-851l0 0z m381 426l108 108c15 15 15 39 0 54-15 15-39 15-54 0l-108-108-108 108c-15 15-39 15-54 0-15-15-15-39 0-54l108-108-108-108c-15-15-15-39 0-54 15-15 39-15 54 0l108 108 108-108c15-15 39-15 54 0 15 15 15 39 0 54l-108 108z" horiz-adv-x="1000" />

<glyph glyph-name="new-add-folder" unicode="&#xe888;" d="M933 783h-234c-37 0-79-18-99-66 0 0-9-61-67-67h-466c-37 0-67-29-67-66v-601c0-37 30-66 67-66h866c37 0 67 29 67 66v734c0 37-30 66-67 66z m0-199v-601h-866v600h466l7 1c62 6 101 49 119 94 17 44 47 39 47 39h227v-133z m-266-267h-134v133c0 18-15 33-33 33-18 0-33-15-33-33v-133h-134c-18 0-33-15-33-34s15-33 33-33h134v-133c0-19 15-34 33-34 18 0 33 15 33 34v133h134c18 0 33 15 33 33s-15 34-33 34z" horiz-adv-x="1000" />

<glyph glyph-name="north-south-pointing-arrows" unicode="&#xe889;" d="M736 24c-12 12-32 12-44 0l-67-67v549c0 18-14 32-31 32-17 0-31-14-31-32v-550l-72 72c-13 12-32 12-45 0-12-12-12-32 0-44l125-125c7-6 15-9 23-9 8 0 16 3 22 9l120 120c12 13 12 33 0 45z m-298 720l72-72c12-12 32-12 44 0 12 12 12 32 0 44l-125 125c-6 6-14 9-22 9s-16-3-23-9l-120-120c-12-13-12-32 0-45 12-12 32-12 44 0l67 67v-549c0-18 14-31 31-31 18 0 32 13 32 31v550z" horiz-adv-x="1000" />

<glyph glyph-name="old-camera" unicode="&#xe88a;" d="M938 600h-125c0 0-37 0-63 63-13 31-28 62-62 62h-250c-35 0-50-30-63-62-25-63-62-63-62-63h-63c0 35-28 63-62 63h-63c-34 0-62-28-62-63-35 0-63-28-63-62v-500c0-35 28-63 63-63h875c34 0 62 28 62 63v500c0 34-28 62-62 62z m0-562h-875v250h284c15-106 105-188 216-188 112 0 204 86 216 195h159v-257z m-532 281c0 86 70 156 157 156s156-70 156-156c0-86-70-156-156-156s-157 70-157 156z m532 31h-160c-15 106-105 188-215 188s-201-82-216-188h-284v188h250c36 0 90 26 120 101 5 13 9 20 11 24h237c4-7 9-20 11-25 41-96 108-100 121-100h125v-188l0 0z" horiz-adv-x="1000" />

<glyph glyph-name="open-folder" unicode="&#xe88b;" d="M938 788h-313c-34 0-62-28-62-63 0 0-9-57-63-62h-437c-35 0-63-27-63-62v-63h1000v63 124c0 35-28 63-62 63z m-938-813c0-35 28-63 63-63h875c34 0 62 28 62 63v500h-1000v-500z m63 438h875v-438h-875v438z" horiz-adv-x="1000" />

<glyph glyph-name="open-lock" unicode="&#xe88c;" d="M875 475h-625l0 27c0 168 104 286 253 286 109 0 206-63 254-164 7-16 26-22 41-15 16 7 23 26 15 42-58 123-176 199-310 199-183 0-315-147-315-348l-1-27h-62c-34 0-62-28-62-62v-501c0-34 28-62 62-62h750c35 0 63 28 63 62v501c0 34-28 62-63 62z m0-563h-750v501h750v-501z m-375 126c69 0 125 55 125 125s-56 125-125 125-125-56-125-125 56-125 125-125z m0 187c34 0 63-28 63-62 0-35-29-63-63-63s-62 28-62 63c0 34 28 62 62 62z" horiz-adv-x="1000" />

<glyph glyph-name="padlock" unicode="&#xe88d;" d="M875 475h-58v58c0 175-142 317-317 317-175 0-317-142-317-317v-58h-58c-34 0-62-28-62-62v-501c0-34 28-62 62-62h750c35 0 63 28 63 62v501c0 34-28 62-63 62z m-375-437c-69 0-125 55-125 125s56 125 125 125 125-56 125-125-56-125-125-125z m192 437h-384v58c0 106 86 192 192 192s192-86 192-192v-58z" horiz-adv-x="1000" />

<glyph glyph-name="paper-bin" unicode="&#xe88e;" d="M781 788h-125c0 34-28 62-62 62h-188c-34 0-62-28-62-62h-125c-35 0-63-28-63-63h688c0 35-28 63-63 63z m-625-876c0-34 28-62 63-62h562c35 0 63 28 63 62v751h-688v-751z m500 594c0 18 14 32 32 32 17 0 31-14 31-32v-500c0-17-14-31-31-31-18 0-32 14-32 31v500z m-187 0c0 18 14 32 31 32 17 0 31-14 31-32v-500c0-17-14-31-31-31-17 0-31 14-31 31v500z m-188 0c0 18 14 32 32 32 17 0 31-14 31-32v-500c0-17-14-31-31-31-18 0-32 14-32 31v500z" horiz-adv-x="1000" />

<glyph glyph-name="paperclip-document-outline" unicode="&#xe88f;" d="M838 234l-398 399c-66 66-150 71-208 13-58-57-52-141 14-207l359-359c12-12 32-12 44 0 12 13 12 32 0 45l-359 358c-32 32-52 80-14 119 39 39 87 18 119-14l399-398c114-115 143-168 75-236-69-69-142-52-252 58l-443 443c-71 72-122 189-28 283 112 111 240 2 276-35l407-407c12-12 32-12 44 0 12 12 12 32 0 45l-407 407c-123 123-262 136-364 34-103-102-91-252 28-371l443-443c37-38 118-118 211-118 41 0 85 16 129 60 125 125 10 240-75 324z" horiz-adv-x="1000" />

<glyph glyph-name="pause-button-1" unicode="&#xe890;" d="M500 850c-276 0-500-224-500-500s224-500 500-500 500 224 500 500-224 500-500 500z m-62-625c0-34-28-62-63-62s-62 28-62 62v250c0 35 28 63 62 63s63-28 63-63v-250z m250 0c0-34-28-62-63-62-34 0-62 28-62 62v250c0 35 28 63 62 63 35 0 63-28 63-63v-250z" horiz-adv-x="1000" />

<glyph glyph-name="pause-button-outline" unicode="&#xe891;" d="M500 850c-276 0-500-224-500-500s224-500 500-500 500 224 500 500-224 500-500 500z m0-938c-241 0-437 197-437 438 0 241 196 438 437 438 241 0 438-197 438-438 0-241-197-438-438-438z m-125 626c-34 0-62-28-62-63v-250c0-34 28-62 62-62s63 28 63 62v250c0 35-28 63-63 63z m250 0c-34 0-62-28-62-63v-250c0-34 28-62 62-62 35 0 63 28 63 62v250c0 35-28 63-63 63z" horiz-adv-x="1000" />

<glyph glyph-name="pause-button" unicode="&#xe892;" d="M167 850c-92 0-167-75-167-167v-666c0-92 75-167 167-167s166 75 166 167v666c0 92-74 167-166 167z m666 0c-92 0-166-75-166-167v-666c0-92 74-167 166-167s167 75 167 167v666c0 92-75 167-167 167z" horiz-adv-x="1000" />

<glyph glyph-name="pencil-edit-square" unicode="&#xe893;" d="M938 850h-875c-35 0-63-28-63-62v-876c0-34 28-62 63-62h875c34 0 62 28 62 62v876c0 34-28 62-62 62z m0-938h-875v876h875v-876z m-681 569l112 112-82 83c-31 31-82 31-113 0s-31-82 0-113l83-82z" horiz-adv-x="1000" />

<glyph glyph-name="pencil" unicode="&#xe894;" d="M938 850h-875c-35 0-63-28-63-62v-876c0-34 28-62 63-62h875c34 0 62 28 62 62v876c0 34-28 62-62 62z m-764-287c-31 31-31 82 0 113s82 31 113 0l82-83-112-112-83 82z m470-470l-321 322 113 112 321-321 56-168-169 55z" horiz-adv-x="1000" />

<glyph glyph-name="play-button-silhouette-1" unicode="&#xe895;" d="M500 850c-276 0-500-224-500-500 0-276 224-500 500-500 276 0 500 224 500 500 0 276-224 500-500 500z m223-520l-259-204c-14-11-38-11-52 0l0 0c-7 5-12 13-12 21v407c0 9 4 16 11 21l1 0c14 12 38 12 52 0l257-203 2-1c14-11 14-30 0-41z" horiz-adv-x="1000" />

<glyph glyph-name="play-button" unicode="&#xe896;" d="M788 394l-3 1-475 437c-26 24-70 24-96 0l-1-1c-12-11-21-27-21-45v-873c0-17 9-33 22-45l0 0c27-24 70-24 97 0l477 438c26 24 26 63 0 88z" horiz-adv-x="1000" />

<glyph glyph-name="plus-button-1" unicode="&#xe897;" d="M500 850c-276 0-500-224-500-500 0-276 224-500 500-500 276 0 500 224 500 500 0 276-224 500-500 500z m0-933c-239 0-433 194-433 433s194 433 433 433 433-194 433-433-194-433-433-433z m267 466h-234v234c0 18-15 33-33 33-18 0-33-15-33-33v-234h-234c-18 0-33-15-33-33 0-18 15-33 33-33h234v-234c0-18 15-33 33-33 18 0 33 15 33 33v234h234c18 0 33 15 33 33 0 18-15 33-33 33z" horiz-adv-x="1000" />

<glyph glyph-name="plus-button" unicode="&#xe898;" d="M889 850h-778c-61 0-111-50-111-111v-778c0-61 50-111 111-111h778c61 0 111 50 111 111v778c0 61-50 111-111 111z m0-889h-778v778h778v-778z m-611 333h166v-166c0-31 25-56 56-56 31 0 56 25 56 56v166h166c31 0 56 25 56 56 0 31-25 56-56 56h-166v166c0 31-25 56-56 56-31 0-56-25-56-56v-166h-166c-31 0-56-25-56-56 0-31 25-56 56-56z" horiz-adv-x="1000" />

<glyph glyph-name="previous-tracl" unicode="&#xe899;" d="M500 850c-276 0-500-224-500-500 0-276 224-500 500-500 276 0 500 224 500 500 0 276-224 500-500 500z m100-703c0-8-4-15-11-21l0 0c-15-11-38-11-53 0l-257 203-1 1c-15 12-15 30 0 41l258 204c15 12 38 12 52 0l0 0c7-5 12-12 12-21v-407z" horiz-adv-x="1000" />

<glyph glyph-name="price-tag" unicode="&#xe89a;" d="M969 850h-423c-10-1-33-17-36-20l-490-490c-27-26-27-68 0-94l376-376c13-13 30-20 47-20s34 7 47 20l490 490c3 3 20 24 20 36v421c1 18-13 33-31 33z m-36-441l-3-5-487-487-376 376 487 488 5 3h374l0-375 0 0z m-133 274c0 19 15 34 33 34 19 0 34-15 34-34s-15-33-34-33c-18 0-33 15-33 33z" horiz-adv-x="1000" />

<glyph glyph-name="prior-track" unicode="&#xe89b;" d="M791 832l0 0c-27 24-71 24-98 0l-485-438c-27-24-27-64 0-88l2-1 483-437c27-24 71-24 98 0l0 1c13 11 22 27 22 44v874c0 17-9 33-22 45z" horiz-adv-x="1000" />

<glyph glyph-name="prohibited" unicode="&#xe89c;" d="M500 850c-276 0-500-224-500-500s224-500 500-500 500 224 500 500-224 500-500 500z m0-875c-207 0-375 168-375 375 0 81 26 156 70 217l522-522c-61-44-136-70-217-70z m305 158l-522 522c61 44 136 70 217 70 207 0 375-168 375-375 0-81-26-156-70-217z" horiz-adv-x="1000" />

<glyph glyph-name="push-pin-pointing-down" unicode="&#xe89d;" d="M656 348v324c79 27 125 70 125 100 0 104-562 104-562 0 0-33 46-75 125-101v-323c-79-20-125-57-125-108 0-48 120-73 250-77l0 0v-188c0-35 14-125 31-125 17 0 31 90 31 125v188l0 0c130 4 250 29 250 77 0 51-46 88-125 108z" horiz-adv-x="1000" />

<glyph glyph-name="quotations-button-1" unicode="&#xe89e;" d="M500 850c-276 0-500-224-500-500s224-500 500-500 500 224 500 500-224 500-500 500z m-52-491c-4-64-33-160-149-253-5-5-12-7-18-7-9 0-18 4-24 12-11 14-8 34 5 44 94 76 120 151 125 202-14-8-29-13-45-13-51 0-92 43-92 96s41 96 92 96c12 0 22-3 32-7l0 0 10-5 1 0 1 0 14-11 7-6c23-23 47-66 41-148z m303 0c-4-64-33-160-149-253-5-5-12-7-18-7-9 0-18 4-24 12-11 14-8 34 5 44 94 76 120 151 125 202-14-8-29-13-45-13-51 0-92 43-92 96s41 96 92 96c12 0 22-3 32-7l0 0 10-5 1 0 1 0 14-11 7-6c23-23 47-66 41-148z" horiz-adv-x="1000" />

<glyph glyph-name="quotations-button-2" unicode="&#xe89f;" d="M500 850c-276 0-500-224-500-500s224-500 500-500 500 224 500 500-224 500-500 500z m0-938c-241 0-437 197-437 438 0 241 196 438 437 438 241 0 438-197 438-438 0-241-197-438-438-438z m-100 601l-14 11-1 0-1 0-10 5 0 0c-10 4-20 7-32 7-51 0-92-43-92-96s41-96 92-96c16 0 31 5 45 13-5-51-31-126-125-202-13-10-16-30-5-44 6-8 15-12 24-12 6 0 13 2 18 7 116 93 145 189 149 253 6 82-18 125-41 148l-7 6z m303 0l-14 11-1 0-1 0-10 5 0 0c-10 4-21 7-32 7-51 0-92-43-92-96s41-96 92-96c16 0 31 5 45 13-5-51-31-126-125-202-13-10-16-30-5-44 6-8 15-12 24-12 6 0 13 2 18 7 116 93 145 189 149 253 6 82-19 125-41 148l-7 6z" horiz-adv-x="1000" />

<glyph glyph-name="quotations" unicode="&#xe8a0;" d="M300 740l-29 21-1 1-2 0-21 11 0-2c-20 8-41 14-64 14-101 0-183-85-183-190s82-191 183-191c33 0 63 10 90 25-10-102-61-250-249-402-26-21-31-61-11-88 12-16 30-24 48-24 13 0 26 4 37 13 231 186 288 378 296 505 13 164-36 250-82 294l-12 13z m616-13l-13 13-29 21-1 1-2 0-21 11 1-2c-20 8-41 14-64 14-102 0-183-85-183-190s81-191 183-191c32 0 62 10 89 25-9-102-60-250-248-402-27-21-31-61-11-88 12-16 30-24 48-24 13 0 26 4 37 13 231 186 288 378 296 505 13 164-36 250-82 294z" horiz-adv-x="1000" />

<glyph glyph-name="refresh-circular-arrow" unicode="&#xe8a1;" d="M937 843c-35 0-64-28-64-63v-148c-71 87-153 211-380 211-272 0-493-221-493-493s221-493 493-493c214 0 402 136 469 339 11 34-7 70-41 82-34 11-70-8-81-41-50-150-189-251-347-251-201 0-364 163-364 364s163 364 364 364c143 0 222-89 286-181h-159c-35 0-63-29-63-64 0-35 28-63 63-63h317c35 0 63 28 63 63v311c0 35-28 63-63 63z" horiz-adv-x="1000" />

<glyph glyph-name="right-arrow-button" unicode="&#xe8a2;" d="M500 850c-276 0-500-224-500-500 0-276 224-500 500-500 276 0 500 224 500 500 0 276-224 500-500 500z m300-500l-2-13-8-10-200-200c-13-13-34-13-47 0-13 13-13 34 0 47l143 143h-519c-19 0-34 15-34 33 0 18 15 33 34 33h519l-143 143c-13 13-13 35 0 48 13 13 34 13 47 0l200-200 7-11 3-13v0z" horiz-adv-x="1000" />

<glyph glyph-name="right-chevron" unicode="&#xe8a3;" d="M764 397l-433 434c-26 26-69 26-95 0s-26-69 0-95l386-386-386-386c-26-26-26-68 0-95s69-26 95 0l433 434c13 13 19 30 19 47 0 17-6 34-19 47z" horiz-adv-x="1000" />

<glyph glyph-name="road-cone-silhoette" unicode="&#xe8a4;" d="M559 809c-9 24-33 41-59 41-26 0-50-17-59-41l-119-334h356l-119 334z m379-834h-875c-35 0-63-28-63-63 0-34 28-62 63-62h875c34 0 62 28 62 62 0 35-28 63-62 63z" horiz-adv-x="1000" />

<glyph glyph-name="road-map" unicode="&#xe8a5;" d="M951 724l-281 125-14 1-12-1-301-123-267 123-13 1c-15 0-28-5-40-14-14-12-23-29-23-48v-750c0-30 20-55 49-62l280-125 13-1 13 1 301 123 268-123 14-1c14 0 27 5 39 14 14 12 23 30 23 48v751c0 29-20 54-49 61z m-638-798l-250 112v750l250-112v-750z m312 99l-250-100v750l250 100v-750z m313-113l-250 112v750l250-111v-751z" horiz-adv-x="1000" />

<glyph glyph-name="rss" unicode="&#xe8a6;" d="M813 850h-625c-104 0-188-84-188-187v-625c0-104 84-188 188-188h625c103 0 187 84 187 188v625c0 103-84 187-187 187z m-543-811c-45 0-82 36-82 81 0 45 37 81 82 81 45 0 81-36 81-81 0-45-36-81-81-81z m204-1c0 77-29 149-83 203-54 54-126 84-203 84v117c223 0 404-181 404-404h-118z m208 0c0 273-221 495-493 495v117c337 0 611-274 611-612h-118l0 0z" horiz-adv-x="1000" />

<glyph glyph-name="screwdriver-and-wrench-crossed" unicode="&#xe8a7;" d="M27 10c-36-37-36-96 0-133 19-18 43-27 67-27s48 9 66 27l307 308-132 132-308-307z m798 214l-12 2c-23 0-45-5-65-13l-384 385c7 20 12 42 12 65l-2 12c-6 98-86 175-186 175-28 0-55-7-80-19l125-124c6-7 11-14 14-23 8-22 3-48-14-65-13-13-29-19-45-19-7 0-14 2-21 4-8 4-16 8-23 15l-124 124c-12-24-19-51-19-80 0-99 77-180 175-186l12-2c23 0 45 5 65 12l385-384c-8-20-13-42-13-65l2-12c6-98 87-175 186-175 29 0 56 7 80 19l-124 124c-7 7-11 15-15 23-8 22-3 48 15 65 12 13 28 19 44 19 7 0 14-2 21-4 9-4 16-8 23-15l124-124c12 24 19 52 19 80 0 100-77 180-175 186z" horiz-adv-x="1000" />

<glyph glyph-name="selected-box" unicode="&#xe8a8;" d="M917 850h-834c-46 0-83-37-83-83v-834c0-46 37-83 83-83h834c46 0 83 37 83 83v834c0 46-37 83-83 83z m0-917h-834v834h834v-834z m-584 167h334c46 0 83 37 83 83v334c0 46-37 83-83 83h-334c-46 0-83-37-83-83v-334c0-46 37-83 83-83z" horiz-adv-x="1000" />

<glyph glyph-name="share-button" unicode="&#xe8a9;" d="M813 850h-625c-104 0-188-84-188-187v-625c0-104 84-188 188-188h625c103 0 187 84 187 188v625c0 103-84 187-187 187z m-209-613c15 11 35 18 55 18 51 0 93-41 93-92 0-51-41-92-93-92-51 0-92 41-92 92v0l-235 114c-15-9-32-15-50-15-51 0-93 41-93 93 0 51 42 92 93 92 21 0 41-8 57-20l228 110v0c0 51 41 92 92 92 51 0 93-41 93-92s-42-92-93-92c-21 0-40 7-55 18l-230-111 0-4 230-111z" horiz-adv-x="1000" />

<glyph glyph-name="share-circle" unicode="&#xe8aa;" d="M500 850c-276 0-500-224-500-500s224-500 500-500 500 224 500 500c0 276-224 500-500 500z m104-613c15 11 35 18 55 18 51 0 93-41 93-92 0-51-42-92-93-92-51 0-92 41-92 92v0l-235 114c-15-9-32-15-50-15-51 0-93 42-93 93s42 92 93 92c21 0 41-8 57-20l228 110v0c0 51 41 92 92 92 51 0 93-41 93-92s-42-92-93-92c-21 0-40 7-55 18l-230-111 0-4 230-111z" horiz-adv-x="1000" />

<glyph glyph-name="shopping-paper-bag" unicode="&#xe8ab;" d="M813 663h-126c-1 103-84 187-187 187s-186-84-187-187h-125c-35 0-63-28-63-63v-688c0-34 28-62 63-62h625c34 0 62 28 62 62v688c0 35-28 63-62 63z m-313 125c68 0 123-56 125-125h-250c2 69 57 125 125 125z m313-876h-625v688h625v-688z m-407 563h188c17 0 31 14 31 31 0 18-14 32-31 32h-188c-17 0-31-14-31-32 0-17 14-31 31-31z" horiz-adv-x="1000" />

<glyph glyph-name="shopping-store-price-tag" unicode="&#xe8ac;" d="M969 850h-423c-10-1-33-17-36-20l-490-490c-27-26-27-68 0-94l376-376c13-13 30-20 47-20s34 7 47 20l490 490c3 3 20 24 20 36v421c1 18-13 33-31 33z m-69-133c-18 0-33 15-33 33s15 33 33 33c18 0 33-14 33-33s-15-33-33-33z" horiz-adv-x="1000" />

<glyph glyph-name="single-folder" unicode="&#xe8ad;" d="M938 756h-283c-34 0-74-17-92-62 0 0-9-58-63-63h-437c-35 0-63-27-63-61v-564c0-34 28-62 63-62h875c34 0 62 28 62 62v688c0 34-28 62-62 62z m0-186v-564h-875v563h437l6 0c59 6 95 47 112 89 16 41 44 36 44 36h276v-124z" horiz-adv-x="1000" />

<glyph glyph-name="small-ascending-thin-arrow" unicode="&#xe8ae;" d="M981 181l-434 433c-13 13-30 19-47 19-17 0-34-6-47-19l-433-433c-27-26-27-69 0-95 26-26 68-26 94 0l386 386 386-386c26-26 69-26 95 0 26 26 26 69 0 95z" horiz-adv-x="1000" />

<glyph glyph-name="small-black-cloud" unicode="&#xe8af;" d="M813 350l-7-1c4 21 7 42 7 64 0 172-140 312-313 312-173 0-312-140-312-312l0-4c-106-15-188-105-188-215 0-110 82-201 188-216v-3h625c103 0 187 84 187 188s-84 187-187 187z" horiz-adv-x="1000" />

<glyph glyph-name="small-black-key" unicode="&#xe8b0;" d="M969 850h-125c-8 0-15-3-21-8l-431-378c-23 5-57 11-79 11-173 0-313-140-313-312s140-313 313-313 312 140 312 313c0 51-10 85-21 114l107 36c13 4 21 16 21 30l-3 119 120 8c16 1 28 14 29 30l4 143 93 20c15 3 25 16 25 31v125c0 17-14 31-31 31z" horiz-adv-x="1000" />

<glyph glyph-name="small-circular-dark-button-with-down-thinny-arrow" unicode="&#xe8b1;" d="M500 850c-276 0-500-224-500-500 0-276 224-500 500-500 276 0 500 224 500 500 0 276-224 500-500 500z m240-440l-216-217c-7-6-15-9-24-9-9 0-17 3-24 9l-216 217c-13 13-13 34 0 47 13 13 34 13 47 0l193-193 193 193c13 13 34 13 47 0 13-13 13-34 0-47z" horiz-adv-x="1000" />

<glyph glyph-name="small-cloud-upload-symbol" unicode="&#xe8b2;" d="M813 350l-7-1c4 21 7 42 7 64 0 172-140 312-313 312-173 0-312-140-312-312l0-4c-106-15-188-105-188-215 0-121 98-219 219-219h157c34 0 62 28 62 62v188h-133l195 250 195-250h-132v-188c0-34 27-62 62-62h188c103 0 187 84 187 188s-84 187-187 187z" horiz-adv-x="1000" />

<glyph glyph-name="small-document-button" unicode="&#xe8b3;" d="M876 850h-752c-35 0-63-28-63-62v-876c0-34 28-62 63-62h752c35 0 63 28 63 62v876c0 34-28 62-63 62z m-156-812h-440c-17 0-31 14-31 31s14 31 31 31h440c17 0 31-14 31-31s-14-31-31-31z m0 187h-440c-17 0-31 14-31 31s14 32 31 32h440c17 0 31-15 31-32s-14-31-31-31z m0 188h-440c-17 0-31 14-31 31 0 17 14 31 31 31h440c17 0 31-14 31-31 0-17-14-31-31-31z m0 187h-253c-17 0-31 14-31 31s14 32 31 32h253c17 0 31-14 31-32s-14-31-31-31z" horiz-adv-x="1000" />

<glyph glyph-name="small-pin-shape" unicode="&#xe8b4;" d="M500 850c-194 0-351-157-351-351 0-15 1-29 3-44 30-274 325-590 325-590 6-6 11-9 15-12l1 0 10-3 9 3 1 0c5 3 10 7 15 12 0 0 291 317 320 591 2 14 3 29 3 43 0 194-157 351-351 351z m286-387c-23-210-220-457-283-532-66 75-266 321-289 532-1 14-2 25-2 36 0 159 129 288 288 288 159 0 288-129 288-288 0-10 0-22-2-36z m-286 199c-90 0-163-73-163-163s73-163 163-163 163 73 163 163-73 163-163 163z m0-263c-55 0-100 45-100 100s45 101 100 101c55 0 101-45 101-101s-45-100-101-100z" horiz-adv-x="1000" />

<glyph glyph-name="small-ribbon" unicode="&#xe8b5;" d="M813 850h-625c-35 0-63-28-63-62v-876c0-25 15-48 39-57 7-3 15-5 24-5 16 0 32 6 44 18l268 269 268-269c12-12 28-18 45-18 8 0 16 2 23 5 24 9 39 32 39 57v876c0 34-28 62-62 62z m0-938l-313 313-312-313v688h625v-688z m0 751h-625v125h625v-125z" horiz-adv-x="1000" />

<glyph glyph-name="small-up-arrows-in-a-circle" unicode="&#xe8b6;" d="M500 850c-276 0-500-224-500-500s224-500 500-500 500 224 500 500-224 500-500 500z m0-933c-239 0-433 194-433 433s194 433 433 433 433-194 433-433c0-239-194-433-433-433z m23 694c-7 6-15 9-24 9-9 0-18-3-24-9l-224-199c-14-13-14-34 0-47 13-13 34-13 47 0l201 177 201-177c13-13 34-13 47 0 13 13 13 34 0 47l-224 199z m0-241c-7 7-15 10-24 10-9 0-18-3-24-10l-224-198c-14-13-14-34 0-47 13-14 34-14 47 0l201 177 201-177c13-14 34-14 47 0 13 13 13 34 0 47l-224 198z" horiz-adv-x="1000" />

<glyph glyph-name="social-network-group" unicode="&#xe8b8;" d="M281 537c84 0 157 73 157 157s-73 156-157 156-156-73-156-156 73-157 156-157z m266-437c0 250-130 375-274 375s-273-125-273-375c0-172 547-172 547 0z m187 316c84 0 157 72 157 156s-73 156-157 156-156-72-156-156 73-156 156-156z m-7-63c-44 0-85-12-122-35 22-61 36-133 36-218 0-84-56-150-153-187 120-102 512-80 512 65 0 250-130 375-273 375z" horiz-adv-x="1000" />

<glyph glyph-name="social-rss-circle-internet" unicode="&#xe8b9;" d="M500 850c-276 0-500-224-500-500s224-500 500-500 500 224 500 500c0 276-224 500-500 500z m-230-811c-45 0-82 36-82 81 0 45 37 81 82 81 45 0 81-36 81-81 0-45-36-81-81-81z m204-1c0 77-29 149-83 203-54 54-126 84-203 84v117c223 0 404-181 404-404h-118z m208 0c0 273-221 495-493 495v117c337 0 611-274 611-612h-118z" horiz-adv-x="1000" />

<glyph glyph-name="social-rss" unicode="&#xe8ba;" d="M0 850v-192c446 0 808-362 808-808h192c0 551-448 1000-1000 1000z m0-340v-191c125 0 242-49 331-138 88-88 137-206 137-331h192c0 364-296 660-660 660z m133-393c-73 0-133-60-133-133 0-74 60-133 133-133 74 0 133 59 133 133 0 73-59 133-133 133z" horiz-adv-x="1000" />

<glyph glyph-name="social-share-symbol" unicode="&#xe8bb;" d="M836 182c-37 0-71-13-99-33l-409 197 0 8 409 197c28-20 62-33 99-33 91 0 164 74 164 164s-73 165-164 165-164-74-164-165v0l-406-196c-28 23-63 36-102 36-90 0-164-73-164-164 0-91 74-164 164-164 33 0 63 10 89 26l419-202v0c0-91 73-165 164-165s164 74 164 165-73 164-164 164z" horiz-adv-x="1000" />

<glyph glyph-name="speech-balloon-note" unicode="&#xe8bc;" d="M500 788c-276 0-500-182-500-407 0-117 61-222 159-296-19-47-50-109-102-173 100 0 228 14 327 74 37-7 76-11 116-11 276 0 500 182 500 406s-224 407-500 407z" horiz-adv-x="1000" />

<glyph glyph-name="speech-bubble-outline" unicode="&#xe8bd;" d="M500 790c-276 0-500-185-500-411 0-106 52-210 142-286-20-47-48-91-82-131-7-9-9-22-4-33 5-12 16-19 29-19 90 0 166 23 253 74 42-7 126-15 162-15 276 0 500 184 500 410 0 226-224 411-500 411z m0-758c-36 0-130 9-162 16-8 1-16 0-22-4-59-36-110-57-165-66 24 36 43 74 59 113 5 14 0 28-11 37-88 66-136 156-136 251 0 192 196 348 437 348 241 0 437-156 437-348 0-192-196-347-437-347z" horiz-adv-x="1000" />

<glyph glyph-name="spotify-logo-button-1" unicode="&#xe8be;" d="M813 850h-625c-104 0-188-84-188-187v-625c0-104 84-188 188-188h625c103 0 187 84 187 188v625c0 103-84 187-187 187z m-313-875c-207 0-375 168-375 375s168 375 375 375 375-168 375-375-168-375-375-375z m208 337c-82 42-174 65-267 65-52 0-103-7-153-20-16-5-25-32-21-48 5-16 21-25 37-21 45 12 91 18 137 18 85 0 165-19 239-58 5-2 10-4 14-4 11 0 22 17 27 28 8 14 2 32-13 40z m-267 215c-57 0-115-7-171-21-18-4-29-26-25-45 5-18 24-29 42-25 50 13 102 19 154 19 100 0 196-23 285-67 4-2 10-3 15-3 13 0 25 10 31 22 8 17 1 38-16 46-98 49-204 74-315 74z m0-290c-46 0-92-7-136-21-14-4-21-33-17-47 4-13 18-21 32-17 39 13 80 19 121 19 69 0 137-18 197-51l13-3c9 0 18 5 22 13 7 13 3 43-10 50-68 37-144 57-222 57z" horiz-adv-x="1000" />

<glyph glyph-name="spotify-logo" unicode="&#xe8bf;" d="M500 850c-276 0-500-224-500-500s224-500 500-500 500 224 500 500c0 276-224 500-500 500z m0-875c-207 0-375 168-375 375s168 375 375 375 375-168 375-375-168-375-375-375z m256 478c-98 49-204 74-315 74-57 0-115-7-171-21-18-4-29-26-25-45 5-18 24-29 42-25 50 13 102 19 154 19 100 0 196-23 285-67 4-2 10-3 15-3 13 0 25 10 31 22 8 17 1 38-16 46z m-315-216c-46 0-92-7-136-21-14-4-21-33-17-47 4-13 18-21 32-17 39 13 80 19 121 19 69 0 137-18 197-51l13-3c9 0 18 5 22 13 7 13 3 43-10 50-68 37-144 57-222 57z m267 75c-82 42-174 65-267 65-52 0-103-7-153-20-16-5-25-32-21-48 5-16 21-25 37-21 45 12 91 18 137 18 85 0 165-19 239-58 5-2 10-4 14-4 11 0 22 17 27 28 8 14 2 32-13 40z" horiz-adv-x="1000" />

<glyph glyph-name="star-sign" unicode="&#xe8c0;" d="M997 468c-7 22-27 39-51 42l-269 39-121 245c-10 21-32 35-56 35s-46-14-56-35l-121-245-269-39c-24-3-44-20-51-42-7-23-1-48 16-65l195-190-46-268c-4-24 6-48 25-62 11-8 24-12 37-12 10 0 20 3 29 8l241 126 241-126c9-5 19-8 29-8 13 0 26 4 37 12 19 14 29 38 25 62l-46 268 195 190c17 17 23 42 16 65z m-278-233l51-301-270 142-270-142 51 301-218 213 302 44 135 274 135-274 302-44-218-213z" horiz-adv-x="1000" />

<glyph glyph-name="stop-button-1" unicode="&#xe8c1;" d="M833 850h-666c-92 0-167-75-167-167v-666c0-92 75-167 167-167h666c92 0 167 75 167 167v666c0 92-75 167-167 167z" horiz-adv-x="1000" />

<glyph glyph-name="stop-button-2" unicode="&#xe8c2;" d="M500 850c-276 0-500-224-500-500s224-500 500-500 500 224 500 500-224 500-500 500z m0-938c-241 0-437 197-437 438 0 241 196 438 437 438 241 0 438-197 438-438 0-241-197-438-438-438z m125 626h-250c-34 0-62-28-62-63v-250c0-34 28-62 62-62h250c35 0 63 28 63 62v250c0 35-28 63-63 63z" horiz-adv-x="1000" />

<glyph glyph-name="tablet-outline" unicode="&#xe8c3;" d="M813 850h-625c-35 0-63-28-63-62v-876c0-34 28-62 63-62h625c34 0 62 28 62 62v876c0 34-28 62-62 62z m-313-973c-19 0-35 16-35 35s16 36 35 36c19 0 35-16 35-36s-16-35-35-35z m250 98h-500v750h500v-750z" horiz-adv-x="1000" />

<glyph glyph-name="tags-outline-1" unicode="&#xe8c4;" d="M877 850h-333c-10 0-31-15-34-18l-398-398c-24-24-24-64 0-88l50-50-50-49c-24-25-24-64 0-88l290-291c13-12 29-18 45-18 16 0 32 6 44 18l397 398c3 3 18 22 18 34v519c1 17-11 31-29 31z m-33-540l0 0-397-398-291 290 50 50 196-196c13-13 29-19 45-19 16 0 32 6 44 19l353 353v-99l0 0z m0 290v-102l0-1-397-397-291 290 395 395 4 3h289v-188h0z" horiz-adv-x="1000" />

<glyph glyph-name="tags-outline" unicode="&#xe8c5;" d="M877 850h-333c-10 0-32-15-35-18l-397-398c-25-24-25-64 0-88l49-50-49-49c-25-25-25-64 0-88l290-291c12-12 28-18 44-18 16 0 32 6 44 18l398 398c3 3 19 22 19 34v519c0 17-13 31-30 31z m-33-539l0-1-398-398-290 291 50 49 196-196c12-13 28-19 44-19s32 6 44 19l354 353c0 0 0-98 0-98z m-31 414c-17 0-31 14-31 32s14 31 31 31c17 0 31-14 31-31s-14-32-31-32z" horiz-adv-x="1000" />

<glyph glyph-name="telephone-handset" unicode="&#xe8c6;" d="M996 89c-2 5-58 111-212 148-10 3-21 0-30-7-48-42-115-86-144-90-194 95-303 277-307 311-2 20 42 88 93 143 7 7 10 17 9 26-13 150-169 224-176 227-6 3-13 3-19 2-181-30-208-135-209-139-2-6-1-12 1-18 215-668 662-791 809-832l27-8 11-2 14 3c4 2 111 52 137 216 1 7 0 14-4 20z" horiz-adv-x="1000" />

<glyph glyph-name="text-lines-file" unicode="&#xe8c7;" d="M875 725h-62v63c0 34-28 62-63 62h-625c-34 0-62-28-62-62v-750c0-35 28-63 62-63h63v-63c0-34 28-62 62-62h625c35 0 63 28 63 62v751c0 34-28 62-63 62z m-471 0h252c17 0 32-14 32-31s-15-31-32-31h-252c-18 0-32 14-32 31s14 31 32 31z m-188-187h440c17 0 32-14 32-32 0-17-15-31-32-31h-440c-17 0-31 14-31 31 0 18 14 32 31 32z m0-188h440c17 0 32-14 32-31 0-17-15-31-32-31h-440c-17 0-31 14-31 31 0 17 14 31 31 31z m0-250c-17 0-31 14-31 31s14 32 31 32h440c17 0 32-15 32-32s-15-31-32-31h-440z m659-188h-625v63h500c35 0 63 28 63 63v625h62v-751z" horiz-adv-x="1000" />

<glyph glyph-name="thin-left-down-arrow" unicode="&#xe8c8;" d="M988 838c-16 16-43 16-59 0l-846-846v316c0 23-18 42-41 42s-42-19-42-42v-417l3-15 9-13 0-1 1 0 13-9 16-3h416c23 0 42 19 42 42 0 22-19 41-42 41h-316l846 846c16 16 16 43 0 59z" horiz-adv-x="1000" />

<glyph glyph-name="thin-left-up-arrow" unicode="&#xe8c9;" d="M988-79l-846 846h316c23 0 42 18 42 41s-19 42-42 42h-416l-16-3-13-9-1 0 0-1-9-13-3-16v-416c0-23 19-42 42-42s41 19 41 42v316l846-846c16-16 43-16 59 0 16 16 16 43 0 59z" horiz-adv-x="1000" />

<glyph glyph-name="thin-little-up-arrow-in-a-circle" unicode="&#xe8ca;" d="M500 850c-276 0-500-224-500-500 0-276 224-500 500-500 276 0 500 224 500 500 0 276-224 500-500 500z m224-457c-13-13-34-13-47 0l-144 143v-519c0-19-15-34-33-34-18 0-33 15-33 34v519l-143-143c-13-13-34-13-47 0s-13 34 0 47l200 200 0 0 10 7c8 4 18 4 26 0l11-7 200-200c13-13 13-34 0-47z" horiz-adv-x="1000" />

<glyph glyph-name="thin-right-arrow" unicode="&#xe8cb;" d="M997 366l-9 13-250 250c-16 17-43 17-59 0-16-16-16-42 0-59l179-178h-816c-23 0-42-19-42-42 0-23 19-42 42-42h816l-179-179c-16-16-16-42 0-58 16-17 43-17 59 0l250 250 9 13 3 16v0l-3 16z" horiz-adv-x="1000" />

<glyph glyph-name="time-watch" unicode="&#xe8cc;" d="M854 704c-196 195-512 195-707 0-196-196-196-512 0-708s511-195 707 0c195 196 195 512 0 708z m-88-385h-267l-1 0c-19 0-34 15-34 33v335c0 19 15 34 34 34 18 0 33-15 33-34v-301h235c18 0 33-15 33-34 0-18-15-33-33-33z" horiz-adv-x="1000" />

<glyph glyph-name="two-down-chevron" unicode="&#xe8cd;" d="M889 355l-389-343-389 343c-25 26-66 26-92 0s-25-66 0-92l434-384c13-13 30-19 47-19 17 0 34 6 47 19l434 384c25 25 25 67 0 92-26 26-67 26-92 0z m-436-11c13-12 30-19 47-18 17-1 34 6 47 18l434 384c25 26 25 67 0 92-25 26-67 26-92 0l-389-343-389 343c-25 26-66 26-92 0s-25-66 0-92l434-384z" horiz-adv-x="1000" />

<glyph glyph-name="two-small-arrows-to-right-in-a-little-circle" unicode="&#xe8ce;" d="M500 850c-276 0-500-224-500-500s224-500 500-500 500 224 500 500-224 500-500 500z m-230-747c-13 13-13 34 0 47l177 201-177 201c-13 13-13 35 0 48 13 13 34 13 47 0l198-224c7-7 10-16 10-25 0-9-3-17-9-24l-199-224c-13-13-34-13-47 0z m486 224l-198-224c-13-13-35-13-48 0-13 13-13 34 0 47l178 201-178 201c-13 13-13 34 0 48 13 13 34 13 48 0l198-225c7-6 10-15 10-24 0-9-3-17-10-24z" horiz-adv-x="1000" />

<glyph glyph-name="unlocked-lock" unicode="&#xe8cf;" d="M875 475h-567v58c0 106 86 192 192 192 70 0 131-38 164-94l2 1c11-16 29-27 50-27 35 0 63 28 63 62 0 9-2 17-5 24l-1 2c-3 6-7 11-11 16-57 85-152 141-262 141-175 0-317-142-317-317v-58h-58c-34 0-62-28-62-62v-501c0-34 28-62 62-62h750c35 0 63 28 63 62v501c0 34-28 62-63 62z m-375-437c-69 0-125 55-125 125s56 125 125 125 125-56 125-125-56-125-125-125z" horiz-adv-x="1000" />

<glyph glyph-name="up-and-down-arrow" unicode="&#xe8d0;" d="M603 28l-72-71v786l72-71c12-12 32-12 44 0 12 12 12 32 0 44l-125 125-10 7c-8 3-16 3-24 0l-10-7 0 0-125-125c-12-12-12-32 0-44 12-12 32-12 44 0l72 71v-786l-72 71c-12 13-32 13-44 0-12-12-12-32 0-44l125-125 0 0 10-7c8-3 16-3 24 0l10 7 125 125c12 12 12 32 0 44-12 13-32 13-44 0z" horiz-adv-x="1000" />

<glyph glyph-name="up-and-right-arrow-button" unicode="&#xe8d1;" d="M854 704c-196 195-512 195-707 0s-196-512 0-708c195-195 511-195 707 0 195 196 195 512 0 708z m-121-437c0-18-15-33-33-33-18 0-33 15-33 33v203l-368-368c-13-13-34-13-47 0-13 13-13 35 0 48l368 367h-203c-18 0-33 15-33 33 0 19 15 33 33 33h283l13-2c8-4 15-10 18-18l2-13v-283z" horiz-adv-x="1000" />

<glyph glyph-name="up-arrow-1" unicode="&#xe8d2;" d="M997 824c-4 10-13 19-23 23l-16 3h-416c-23 0-42-19-42-42s19-41 42-41h316l-846-846c-16-16-16-43 0-59s43-16 59 0l846 846v-316c0-23 18-42 41-42s42 19 42 42v416l-3 16z" horiz-adv-x="1000" />

<glyph glyph-name="up-arrow" unicode="&#xe8d3;" d="M982 158l-438 484c-24 27-63 27-88 0l-1-2-437-482c-24-28-24-71 0-99l1 0c11-13 27-21 45-21h872c18 0 34 8 45 22l1-1c24 28 24 71 0 99z" horiz-adv-x="1000" />

<glyph glyph-name="up-sign" unicode="&#xe8d4;" d="M780 588l-250 250-14 9c-10 4-22 4-32 0l-13-9 0 0-250-250c-17-16-17-43 0-59s42-16 58 0l179 179v-816c0-23 19-42 42-42 23 0 42 19 42 42v816l179-179c16-16 42-16 59 0 16 16 16 43 0 59z" horiz-adv-x="1000" />

<glyph glyph-name="upload-folder" unicode="&#xe8d5;" d="M938 756h-313c-34 0-62-28-62-62 0 0-9-58-63-63h-437c-35 0-63-27-63-61v-564c0-34 28-62 63-62h375v312h-133l195 250 195-250h-132v-312h375c34 0 62 28 62 62v688c0 34-28 62-62 62z" horiz-adv-x="1000" />

<glyph glyph-name="voice-mic" unicode="&#xe8d6;" d="M781 475c-17 0-31-14-31-31v-94c0-164-126-250-250-250-120 0-250 78-250 250v94c0 17-14 31-31 31s-31-14-31-31v-94c0-177 117-282 250-306v-132h-94c-17 0-31-14-31-31s14-31 31-31h312c17 0 32 14 32 31s-15 31-32 31h-93v132c130 26 250 131 250 306v94c0 17-15 31-32 31z m-281-312c103 0 188 84 188 187v313c0 103-85 187-188 187s-187-84-187-187v-313c0-103 84-187 187-187z m-125 500c0 69 56 125 125 125s125-56 125-125v-313c0-69-56-125-125-125s-125 56-125 125v313z" horiz-adv-x="1000" />

<glyph glyph-name="working-cone" unicode="&#xe8d7;" d="M780 225l-24 63h-513l-23-63-95-250h750l-95 250z m-493 0h426l72-187h-569l71 187z m422 188l-24 62-127 335c-9 24-32 40-58 40-26 0-49-16-58-40l-127-335-24-62h351 67z m-327 62l118 313 119-313h-237z m586-563h-936c-18 0-32-13-32-30 0-18 14-32 32-32h936c18 0 32 14 32 32s-14 30-32 30z" horiz-adv-x="1000" />

<glyph glyph-name="wrench-tool" unicode="&#xe8d8;" d="M813 100c7 0 14-2 21-4 8-3 16-8 23-14l124-125c12 25 19 52 19 81 0 99-77 179-175 186l-12 1c-23 0-45-5-65-12l-385 385c7 20 12 42 12 65l-1 12c-7 98-87 175-186 175-29 0-56-7-81-19l125-124c6-7 11-15 14-23 8-22 4-48-14-66-12-12-28-18-44-18-8 0-15 2-22 4-8 3-16 8-23 14l-124 125c-12-25-19-52-19-80 0-100 77-180 175-187l13-1c22 0 44 5 64 12l385-385c-7-20-12-42-12-64l1-13c7-98 87-175 187-175 28 0 55 7 80 19l-125 124c-6 7-11 15-14 23-8 22-4 48 14 66 13 12 29 18 45 18z" horiz-adv-x="1000" />

<glyph glyph-name="zoom-interface" unicode="&#xe8d9;" d="M594 850c-225 0-406-182-406-406 0-97 33-185 90-255l-265-265c-17-17-17-44 0-61 17-17 44-17 61 0l265 265c70-57 158-91 255-91 224 0 406 182 406 407s-182 406-406 406z m0-750c-190 0-344 154-344 344s154 344 344 344 344-155 344-344-155-344-344-344z m187 375h-156v156c0 17-14 31-31 31-17 0-31-14-31-31v-156h-157c-17 0-31-14-31-31 0-18 14-32 31-32h157v-156c0-17 14-31 31-31 17 0 31 14 31 31v156h156c18 0 32 14 32 32 0 17-14 31-32 31z" horiz-adv-x="1000" />

<glyph glyph-name="zoom-out-symbol" unicode="&#xe8da;" d="M594 850c-225 0-406-182-406-406 0-97 33-185 90-255l-265-265c-17-17-17-44 0-61 17-17 44-17 61 0l265 265c70-57 158-91 255-91 224 0 406 182 406 407s-182 406-406 406z m0-750c-190 0-344 154-344 344s154 344 344 344 344-155 344-344-155-344-344-344z m187 375h-375c-17 0-31-14-31-31 0-18 14-32 31-32h375c18 0 32 14 32 32 0 17-14 31-32 31z" horiz-adv-x="1000" />
</font>
</defs>
</svg>
